<svg xmlns="http://www.w3.org/2000/svg" width="35.2" height="16.762" viewBox="0 0 35.2 16.762">
  <g id="_13-car" data-name="13-car" transform="translate(-4 -100)">
    <g id="linear_color" data-name="linear color" transform="translate(4 100)">
      <circle id="Ellipse_53" data-name="Ellipse 53" cx="1" cy="1" r="1" transform="translate(7 12)" fill="#17554e"/>
      <circle id="Ellipse_54" data-name="Ellipse 54" cx="1" cy="1" r="1" transform="translate(27 12)" fill="#17554e"/>
      <path id="Path_1012" data-name="Path 1012" d="M37.063,106.5l-6.169-.936L24.986,100.7a3.082,3.082,0,0,0-1.952-.7H14.852a3.058,3.058,0,0,0-2.4,1.153l-3.547,4.434H6.514A2.517,2.517,0,0,0,4,108.1V110.9a3.076,3.076,0,0,0,3.073,3.073h1.5a3.631,3.631,0,0,0,7.066,0H28.683a3.631,3.631,0,0,0,7.066,0h.937a2.517,2.517,0,0,0,2.514-2.514v-2.47a2.5,2.5,0,0,0-2.137-2.486Zm-13.142-4.5,4.366,3.593H20.2v-3.911h2.831A1.4,1.4,0,0,1,23.921,101.994Zm-10.16.206a1.39,1.39,0,0,1,1.091-.524h.323v3.911H11.052ZM12.1,115.086a1.956,1.956,0,1,1,1.956-1.956A1.956,1.956,0,0,1,12.1,115.086Zm20.114,0a1.956,1.956,0,1,1,1.956-1.956,1.956,1.956,0,0,1-1.956,1.956Zm5.308-3.632a.839.839,0,0,1-.838.838h-.937a3.631,3.631,0,0,0-7.066,0H15.635a3.631,3.631,0,0,0-7.066,0h-1.5a1.4,1.4,0,0,1-1.4-1.4V108.1a.839.839,0,0,1,.838-.838h9.5a.838.838,0,0,0,.838-.838v-4.749h1.676v4.749a.838.838,0,0,0,.838.838H30.937l5.875.891a.844.844,0,0,1,.712.829Z" transform="translate(-4 -100)" fill="#17554e"/>
      <path id="Path_1013" data-name="Path 1013" d="M213.956,212h-1.117a.838.838,0,0,0,0,1.676h1.117a.838.838,0,0,0,0-1.676Z" transform="translate(-197.473 -204.178)" fill="#17554e"/>
      <circle id="Ellipse_55" data-name="Ellipse 55" cx="1" cy="1" r="1" transform="translate(7 12)" fill="#17554e"/>
      <circle id="Ellipse_56" data-name="Ellipse 56" cx="1" cy="1" r="1" transform="translate(27 12)" fill="#17554e"/>
    </g>
  </g>
</svg>
