<svg xmlns="http://www.w3.org/2000/svg" width="20.07" height="14.288" viewBox="0 0 20.07 14.288">
  <g id="back" transform="translate(3.569 -75.393)">
    <g id="Group_724" data-name="Group 724" transform="translate(-3 76.97)">
      <path id="Path_886" data-name="Path 886" d="M14.282,80.819H1.34l2.721-3.05a.48.48,0,1,0-.716-.639L.28,80.565a1.1,1.1,0,0,0,0,1.468l3.065,3.435a.48.48,0,1,0,.716-.639L1.34,81.779H14.282a3.759,3.759,0,1,1,0,7.519H12a.48.48,0,0,0,0,.96h2.285a4.719,4.719,0,1,0,0-9.438Z" transform="translate(0 -78.046)" fill="#0e3e40" stroke="#0e3e40" stroke-width="1"/>
    </g>
  </g>
</svg>
