<svg xmlns="http://www.w3.org/2000/svg" width="13.103" height="9.049" viewBox="0 0 13.103 9.049">
  <g id="email" transform="translate(0 -85.333)">
    <g id="Group_796" data-name="Group 796" transform="translate(0 85.333)">
      <path id="Path_1004" data-name="Path 1004" d="M12.431,85.333H.672a.686.686,0,0,0-.672.7v7.657a.686.686,0,0,0,.672.7H12.431a.686.686,0,0,0,.672-.7V86.029A.686.686,0,0,0,12.431,85.333Zm-.252.522L6.938,89.927a.682.682,0,0,1-.773,0L.924,85.855ZM9.379,90.2l2.856,3.655.009.01H.858l.009-.01L3.724,90.2a.267.267,0,0,0-.037-.367.246.246,0,0,0-.354.039L.5,93.486v-7.3l5.359,4.164a1.169,1.169,0,0,0,1.377,0L12.6,86.181v7.3L9.771,89.867a.246.246,0,0,0-.354-.039A.267.267,0,0,0,9.379,90.2Z" transform="translate(0 -85.333)" fill="#17554e"/>
    </g>
  </g>
</svg>
