<svg xmlns="http://www.w3.org/2000/svg" width="32" height="32" viewBox="0 0 32 32">
  <g id="Group_813" data-name="Group 813" transform="translate(-2215 -259)">
    <g id="Ellipse_51" data-name="Ellipse 51" transform="translate(2215 259)" fill="none" stroke="#457470" stroke-width="1">
      <circle cx="16" cy="16" r="16" stroke="none"/>
      <circle cx="16" cy="16" r="15.5" fill="none"/>
    </g>
    <g id="camera" transform="translate(2224 225.2)">
      <g id="Group_812" data-name="Group 812" transform="translate(0 44.8)">
        <g id="Group_811" data-name="Group 811" transform="translate(0 0)">
          <path id="Path_1010" data-name="Path 1010" d="M12.9,46.437a1.435,1.435,0,0,0-1.053-.444H9.745v-.025a1.139,1.139,0,0,0-.343-.825,1.161,1.161,0,0,0-.825-.343H4.771a1.17,1.17,0,0,0-1.18,1.167v.025H1.5a1.435,1.435,0,0,0-1.053.444A1.509,1.509,0,0,0,0,47.49v6.319a1.435,1.435,0,0,0,.444,1.053,1.509,1.509,0,0,0,1.053.444H11.852a1.435,1.435,0,0,0,1.053-.444,1.509,1.509,0,0,0,.444-1.053V47.49A1.435,1.435,0,0,0,12.9,46.437Zm-.216,7.372h-.013a.823.823,0,0,1-.825.825H1.5a.823.823,0,0,1-.825-.825V47.49a.823.823,0,0,1,.825-.825H3.946a.341.341,0,0,0,.343-.343v-.368a.478.478,0,0,1,.495-.495H8.578a.478.478,0,0,1,.495.495v.368a.341.341,0,0,0,.343.343h2.449a.823.823,0,0,1,.825.825Z" transform="translate(0 -44.8)" fill="#457470"/>
          <path id="Path_1011" data-name="Path 1011" d="M115.122,130.8a3.119,3.119,0,1,0,2.208.914A3.127,3.127,0,0,0,115.122,130.8Zm1.726,4.86a2.451,2.451,0,0,1-3.451,0,2.426,2.426,0,0,1-.711-1.726,2.48,2.48,0,0,1,.711-1.726,2.426,2.426,0,0,1,1.726-.711,2.48,2.48,0,0,1,1.726.711,2.426,2.426,0,0,1,.711,1.726A2.374,2.374,0,0,1,116.847,135.66Z" transform="translate(-108.447 -128.072)" fill="#457470"/>
          <circle id="Ellipse_52" data-name="Ellipse 52" cx="0.622" cy="0.622" r="0.622" transform="translate(10.57 2.715)" fill="#457470"/>
        </g>
      </g>
    </g>
  </g>
</svg>
