<svg xmlns="http://www.w3.org/2000/svg" xmlns:xlink="http://www.w3.org/1999/xlink" width="290.795" height="226.595" viewBox="0 0 290.795 226.595">
  <defs>
    <linearGradient id="linear-gradient" x1="19.868" y1="-25.033" x2="19.309" y2="-25.069" gradientUnits="objectBoundingBox">
      <stop offset="0" stop-color="#ff6636"/>
      <stop offset="0.625" stop-color="#ea3511"/>
      <stop offset="1" stop-color="#e11e00"/>
    </linearGradient>
    <linearGradient id="linear-gradient-2" x1="189.104" y1="-244.358" x2="185.024" y2="-244.256" gradientUnits="objectBoundingBox">
      <stop offset="0" stop-color="#ffd582"/>
      <stop offset="0.29" stop-color="#ffbd6d"/>
      <stop offset="0.9" stop-color="#ff7f39"/>
      <stop offset="1" stop-color="#ff7530"/>
    </linearGradient>
    <linearGradient id="linear-gradient-3" x1="112.041" y1="-145.188" x2="109.617" y2="-145.127" xlink:href="#linear-gradient-2"/>
    <linearGradient id="linear-gradient-4" x1="75.562" y1="-98.262" x2="73.922" y2="-98.221" xlink:href="#linear-gradient-2"/>
    <linearGradient id="linear-gradient-5" x1="37.618" y1="-49.414" x2="36.794" y2="-49.393" xlink:href="#linear-gradient-2"/>
    <linearGradient id="linear-gradient-6" x1="52.267" y1="-68.249" x2="51.128" y2="-68.22" xlink:href="#linear-gradient-2"/>
    <linearGradient id="linear-gradient-7" x1="21.207" y1="-37.104" x2="20.782" y2="-37.101" gradientUnits="objectBoundingBox">
      <stop offset="0" stop-color="#ffda94"/>
      <stop offset="0.25" stop-color="#b89d6b"/>
      <stop offset="0.617" stop-color="#564931"/>
      <stop offset="0.874" stop-color="#18140d"/>
      <stop offset="0.995"/>
    </linearGradient>
    <linearGradient id="linear-gradient-8" x1="86.008" y1="-33.105" x2="85.996" y2="-32.787" gradientUnits="objectBoundingBox">
      <stop offset="0" stop-color="#ae3508"/>
      <stop offset="0.508" stop-color="#aa1703"/>
      <stop offset="1" stop-color="#a80000"/>
    </linearGradient>
    <linearGradient id="linear-gradient-9" x1="-3550.896" y1="-4001.768" x2="-3549.874" y2="-4001.665" gradientUnits="objectBoundingBox">
      <stop offset="0" stop-color="#ab3c00"/>
      <stop offset="0.344" stop-color="#ffc700"/>
      <stop offset="0.37" stop-color="#ffcd17"/>
      <stop offset="0.407" stop-color="#ffd432"/>
      <stop offset="0.445" stop-color="#ffd946"/>
      <stop offset="0.483" stop-color="#ffdc52"/>
      <stop offset="0.522" stop-color="#ffde56"/>
      <stop offset="0.551" stop-color="#ffdc51"/>
      <stop offset="0.585" stop-color="#ffd842"/>
      <stop offset="0.623" stop-color="#ffd22b"/>
      <stop offset="0.661" stop-color="#ffc90a"/>
      <stop offset="0.672" stop-color="#ffc700"/>
      <stop offset="1" stop-color="#ab3c00"/>
    </linearGradient>
    <linearGradient id="linear-gradient-10" x1="-1551.605" y1="-1822.839" x2="-1551.564" y2="-1822.575" gradientUnits="objectBoundingBox">
      <stop offset="0" stop-color="#400300"/>
      <stop offset="0.071" stop-color="#750300"/>
      <stop offset="0.144" stop-color="#a50300"/>
      <stop offset="0.208" stop-color="#c80300"/>
      <stop offset="0.261" stop-color="#dd0300"/>
      <stop offset="0.296" stop-color="#e50300"/>
      <stop offset="0.338" stop-color="#ee180c"/>
      <stop offset="0.393" stop-color="#f72e18"/>
      <stop offset="0.446" stop-color="#fd3b1f"/>
      <stop offset="0.495" stop-color="#ff4022"/>
      <stop offset="0.544" stop-color="#fd3b1f"/>
      <stop offset="0.599" stop-color="#f72d17"/>
      <stop offset="0.657" stop-color="#ed170b"/>
      <stop offset="0.699" stop-color="#e50300"/>
      <stop offset="0.734" stop-color="#db0300"/>
      <stop offset="0.791" stop-color="#c10300"/>
      <stop offset="0.865" stop-color="#970300"/>
      <stop offset="0.952" stop-color="#5e0300"/>
      <stop offset="1" stop-color="#3b0300"/>
    </linearGradient>
    <linearGradient id="linear-gradient-11" x1="-2367.494" y1="-6747.71" x2="-2367.494" y2="-6746.574" xlink:href="#linear-gradient-9"/>
    <linearGradient id="linear-gradient-12" x1="-3105.254" y1="-3444.887" x2="-3105.303" y2="-3444.318" xlink:href="#linear-gradient-9"/>
    <linearGradient id="linear-gradient-13" x1="-5453.743" y1="-6612.344" x2="-5454.121" y2="-6611.693" gradientUnits="objectBoundingBox">
      <stop offset="0" stop-color="#0038ab"/>
      <stop offset="0.113" stop-color="#0061c9"/>
      <stop offset="0.272" stop-color="#0097ef"/>
      <stop offset="0.349" stop-color="#00acff"/>
      <stop offset="0.401" stop-color="#00bfff"/>
      <stop offset="0.469" stop-color="#00d2ff"/>
      <stop offset="0.516" stop-color="#00d9ff"/>
      <stop offset="0.663" stop-color="#00b7ff"/>
      <stop offset="0.71" stop-color="#00acff"/>
      <stop offset="0.755" stop-color="#00a1f7"/>
      <stop offset="0.833" stop-color="#0085e3"/>
      <stop offset="0.934" stop-color="#0059c3"/>
      <stop offset="1" stop-color="#0038ab"/>
    </linearGradient>
    <linearGradient id="linear-gradient-14" x1="-2536.968" y1="-3383.354" x2="-2536.631" y2="-3383.46" gradientUnits="objectBoundingBox">
      <stop offset="0" stop-color="#005200"/>
      <stop offset="0.186" stop-color="#00880b"/>
      <stop offset="0.312" stop-color="#00a912"/>
      <stop offset="0.327" stop-color="#11ac12"/>
      <stop offset="0.367" stop-color="#39b512"/>
      <stop offset="0.406" stop-color="#59bc12"/>
      <stop offset="0.444" stop-color="#70c112"/>
      <stop offset="0.479" stop-color="#7ec312"/>
      <stop offset="0.511" stop-color="#83c512"/>
      <stop offset="0.55" stop-color="#7ec412"/>
      <stop offset="0.591" stop-color="#72c112"/>
      <stop offset="0.632" stop-color="#5dbd12"/>
      <stop offset="0.674" stop-color="#40b612"/>
      <stop offset="0.715" stop-color="#1bae12"/>
      <stop offset="0.742" stop-color="#00a912"/>
      <stop offset="0.783" stop-color="#009d10"/>
      <stop offset="0.856" stop-color="#007f0b"/>
      <stop offset="0.95" stop-color="#004f04"/>
      <stop offset="1" stop-color="#003400"/>
    </linearGradient>
    <linearGradient id="linear-gradient-15" x1="-3113.258" y1="-1415.377" x2="-3113.325" y2="-1415.956" xlink:href="#linear-gradient-9"/>
    <linearGradient id="linear-gradient-16" x1="-2587.457" y1="-4043.972" x2="-2587.538" y2="-4044.581" xlink:href="#linear-gradient-9"/>
    <linearGradient id="linear-gradient-17" x1="-2265.651" y1="-1469.157" x2="-2265.682" y2="-1469.493" xlink:href="#linear-gradient-9"/>
    <linearGradient id="linear-gradient-18" x1="-3268.819" y1="-2229.18" x2="-3268.955" y2="-2229.519" gradientUnits="objectBoundingBox">
      <stop offset="0" stop-color="#920040"/>
      <stop offset="0.048" stop-color="#ad0052"/>
      <stop offset="0.119" stop-color="#d00069"/>
      <stop offset="0.186" stop-color="#ea0079"/>
      <stop offset="0.247" stop-color="#f90083"/>
      <stop offset="0.296" stop-color="#ff0087"/>
      <stop offset="0.349" stop-color="#ff1a8b"/>
      <stop offset="0.435" stop-color="#ff3f91"/>
      <stop offset="0.504" stop-color="#ff5595"/>
      <stop offset="0.548" stop-color="#ff5e97"/>
      <stop offset="0.584" stop-color="#ff5595"/>
      <stop offset="0.641" stop-color="#ff3e91"/>
      <stop offset="0.712" stop-color="#ff198b"/>
      <stop offset="0.753" stop-color="#ff0087"/>
      <stop offset="0.794" stop-color="#f90083"/>
      <stop offset="0.844" stop-color="#ea0079"/>
      <stop offset="0.9" stop-color="#d10069"/>
      <stop offset="0.959" stop-color="#ae0052"/>
      <stop offset="1" stop-color="#920040"/>
    </linearGradient>
    <linearGradient id="linear-gradient-19" x1="-1968.88" y1="-1566.14" x2="-1968.497" y2="-1566.096" xlink:href="#linear-gradient-9"/>
    <linearGradient id="linear-gradient-20" x1="-2282.229" y1="-1620.859" x2="-2281.901" y2="-1620.859" xlink:href="#linear-gradient-18"/>
    <linearGradient id="linear-gradient-21" x1="-5305.172" y1="-4478.163" x2="-5305.297" y2="-4479.207" xlink:href="#linear-gradient-14"/>
    <linearGradient id="linear-gradient-22" x1="-1069.331" y1="-1840.866" x2="-1069.015" y2="-1840.809" xlink:href="#linear-gradient-10"/>
    <linearGradient id="linear-gradient-23" x1="-4566.004" y1="-5908.331" x2="-4566.47" y2="-5907.481" xlink:href="#linear-gradient-9"/>
    <linearGradient id="linear-gradient-24" x1="-2082.199" y1="-2717.19" x2="-2082.231" y2="-2717.838" xlink:href="#linear-gradient-18"/>
    <linearGradient id="linear-gradient-25" x1="-2869.491" y1="-1236.563" x2="-2869.588" y2="-1236.777" xlink:href="#linear-gradient-10"/>
    <linearGradient id="linear-gradient-26" x1="-2868.762" y1="-1220.815" x2="-2868.859" y2="-1221.029" xlink:href="#linear-gradient-10"/>
    <linearGradient id="linear-gradient-27" x1="-1105.049" y1="-1526.48" x2="-1105.089" y2="-1526.709" xlink:href="#linear-gradient-9"/>
    <linearGradient id="linear-gradient-28" x1="-3813.514" y1="-2582.832" x2="-3813.633" y2="-2583.587" xlink:href="#linear-gradient-9"/>
    <linearGradient id="linear-gradient-29" x1="-2442.79" y1="-2390.57" x2="-2442.566" y2="-2390.224" xlink:href="#linear-gradient-14"/>
    <linearGradient id="linear-gradient-30" x1="-3126.04" y1="-4115.032" x2="-3125.942" y2="-4114.206" xlink:href="#linear-gradient-10"/>
    <linearGradient id="linear-gradient-31" x1="-1871.41" y1="-1434.056" x2="-1871.41" y2="-1433.818" xlink:href="#linear-gradient-13"/>
    <linearGradient id="linear-gradient-32" x1="-4622.605" y1="-1636.631" x2="-4622.605" y2="-1636.081" xlink:href="#linear-gradient-18"/>
    <linearGradient id="linear-gradient-33" x1="-1762.93" y1="-1935.459" x2="-1762.889" y2="-1935.201" xlink:href="#linear-gradient-10"/>
    <linearGradient id="linear-gradient-34" x1="-4274.646" y1="-2816.754" x2="-4274.654" y2="-2816.094" xlink:href="#linear-gradient-14"/>
    <linearGradient id="linear-gradient-35" x1="-3087.755" y1="-2778.632" x2="-3087.762" y2="-2778.167" xlink:href="#linear-gradient-10"/>
    <linearGradient id="linear-gradient-36" x1="-3933.837" y1="-7138.448" x2="-3933.673" y2="-7137.365" xlink:href="#linear-gradient-18"/>
    <linearGradient id="linear-gradient-37" x1="-7663.439" y1="-6089.141" x2="-7662.268" y2="-6089.007" xlink:href="#linear-gradient-10"/>
    <linearGradient id="linear-gradient-38" x1="-3406.1" y1="-2683.71" x2="-3404.928" y2="-2683.577" xlink:href="#linear-gradient-10"/>
    <linearGradient id="linear-gradient-39" x1="-2734.818" y1="-3978.449" x2="-2734.69" y2="-3977.657" xlink:href="#linear-gradient-13"/>
    <linearGradient id="linear-gradient-40" x1="-2836.245" y1="-1955.471" x2="-2835.078" y2="-1955.471" xlink:href="#linear-gradient-14"/>
    <linearGradient id="linear-gradient-41" x1="-6146.387" y1="-4921.267" x2="-6147.029" y2="-4920.75" xlink:href="#linear-gradient-14"/>
    <linearGradient id="linear-gradient-42" x1="-4344.367" y1="-5992.598" x2="-4344.378" y2="-5991.134" xlink:href="#linear-gradient-18"/>
    <linearGradient id="linear-gradient-43" x1="-5267.205" y1="-2060.07" x2="-5267.081" y2="-2059.765" xlink:href="#linear-gradient-10"/>
    <linearGradient id="linear-gradient-44" x1="-5937.928" y1="-5808.92" x2="-5937.349" y2="-5808.165" xlink:href="#linear-gradient-13"/>
    <linearGradient id="linear-gradient-45" x1="-1488.946" y1="-2800.512" x2="-1488.5" y2="-2800.428" xlink:href="#linear-gradient-14"/>
    <linearGradient id="linear-gradient-46" x1="-11961.618" y1="-5121.944" x2="-11962.395" y2="-5121.29" xlink:href="#linear-gradient-9"/>
    <linearGradient id="linear-gradient-47" x1="-4938.173" y1="-2288.141" x2="-4938.173" y2="-2287.767" xlink:href="#linear-gradient-18"/>
    <linearGradient id="linear-gradient-48" x1="-3163.731" y1="-5724.398" x2="-3163.378" y2="-5723.272" xlink:href="#linear-gradient-14"/>
    <linearGradient id="linear-gradient-49" x1="-2127.654" y1="-1968.068" x2="-2127.799" y2="-1968.543" xlink:href="#linear-gradient-13"/>
    <linearGradient id="linear-gradient-50" x1="-2307.166" y1="-2424.997" x2="-2306.805" y2="-2424.997" xlink:href="#linear-gradient-9"/>
    <linearGradient id="linear-gradient-51" x1="-1637.666" y1="-1846.055" x2="-1637.621" y2="-1845.746" xlink:href="#linear-gradient-14"/>
    <linearGradient id="linear-gradient-52" x1="-4594.521" y1="-4695.016" x2="-4593.836" y2="-4694.897" xlink:href="#linear-gradient-10"/>
    <linearGradient id="linear-gradient-53" x1="-9309.589" y1="-5259.298" x2="-9309.355" y2="-5258.188" xlink:href="#linear-gradient-9"/>
    <linearGradient id="linear-gradient-54" x1="-1955.479" y1="-2288.368" x2="-1955.401" y2="-2287.823" xlink:href="#linear-gradient-14"/>
    <linearGradient id="linear-gradient-55" x1="-1882.832" y1="-1863.665" x2="-1882.836" y2="-1863.276" xlink:href="#linear-gradient-18"/>
    <linearGradient id="linear-gradient-56" x1="-1156.884" y1="-1233.303" x2="-1156.884" y2="-1233.123" xlink:href="#linear-gradient-13"/>
    <linearGradient id="linear-gradient-57" x1="-4038.155" y1="-1679.445" x2="-4038.832" y2="-1678.944" xlink:href="#linear-gradient-13"/>
    <linearGradient id="linear-gradient-58" x1="-1551.476" y1="-2655.958" x2="-1551.533" y2="-2656.56" xlink:href="#linear-gradient-13"/>
    <linearGradient id="linear-gradient-59" x1="-1851.095" y1="-2145.927" x2="-1851.006" y2="-2145.328" xlink:href="#linear-gradient-18"/>
    <linearGradient id="linear-gradient-60" x1="-1889.438" y1="-1606.162" x2="-1889.389" y2="-1605.966" xlink:href="#linear-gradient-13"/>
    <linearGradient id="linear-gradient-61" x1="-2212.022" y1="-1401.876" x2="-2211.395" y2="-1401.827" xlink:href="#linear-gradient-10"/>
    <linearGradient id="linear-gradient-62" x1="-2695.24" y1="-4745.127" x2="-2695.324" y2="-4745.833" xlink:href="#linear-gradient-10"/>
    <linearGradient id="linear-gradient-63" x1="-4263.743" y1="-4488.502" x2="-4263.621" y2="-4487.873" xlink:href="#linear-gradient-14"/>
    <linearGradient id="linear-gradient-64" x1="-2199.691" y1="-2164.228" x2="-2199.784" y2="-2164.573" xlink:href="#linear-gradient-18"/>
    <linearGradient id="linear-gradient-65" x1="-3649.944" y1="-2026.409" x2="-3649.658" y2="-2026.058" xlink:href="#linear-gradient-10"/>
    <linearGradient id="linear-gradient-66" x1="-1524.611" y1="-1651.945" x2="-1524.667" y2="-1652.192" xlink:href="#linear-gradient-9"/>
    <linearGradient id="linear-gradient-67" x1="-1985.786" y1="-2512.408" x2="-1985.603" y2="-2511.944" xlink:href="#linear-gradient-13"/>
    <linearGradient id="linear-gradient-68" x1="-1616.854" y1="-2008.397" x2="-1616.621" y2="-2008.467" xlink:href="#linear-gradient-13"/>
    <linearGradient id="linear-gradient-69" x1="-6468.694" y1="-4955.37" x2="-6467.668" y2="-4955.259" xlink:href="#linear-gradient-9"/>
    <linearGradient id="linear-gradient-70" x1="-1830.89" y1="-2048.672" x2="-1830.544" y2="-2048.623" xlink:href="#linear-gradient-18"/>
    <linearGradient id="linear-gradient-71" x1="-5799.831" y1="-9046.335" x2="-5799.701" y2="-9045.374" xlink:href="#linear-gradient-9"/>
    <linearGradient id="linear-gradient-72" x1="-1935.482" y1="-3173.414" x2="-1935.077" y2="-3173.333" xlink:href="#linear-gradient-14"/>
    <linearGradient id="linear-gradient-73" x1="-2015.192" y1="-2179.914" x2="-2015.141" y2="-2179.649" xlink:href="#linear-gradient-14"/>
    <linearGradient id="linear-gradient-74" x1="-3413.472" y1="-5698.94" x2="-3413.48" y2="-5697.651" xlink:href="#linear-gradient-18"/>
    <linearGradient id="linear-gradient-75" x1="-2252.46" y1="-3613.339" x2="-2252.221" y2="-3612.733" xlink:href="#linear-gradient-14"/>
    <linearGradient id="linear-gradient-76" x1="-2278.031" y1="-3479.875" x2="-2278.031" y2="-3479.185" xlink:href="#linear-gradient-14"/>
    <linearGradient id="linear-gradient-77" x1="-3792.782" y1="-3498.363" x2="-3792.656" y2="-3497.67" xlink:href="#linear-gradient-13"/>
    <linearGradient id="linear-gradient-78" x1="146.835" y1="-575.328" x2="147.502" y2="-575.328" gradientUnits="objectBoundingBox">
      <stop offset="0" stop-color="#da0000"/>
      <stop offset="0.09" stop-color="#e61014"/>
      <stop offset="0.242" stop-color="#f82831"/>
      <stop offset="0.329" stop-color="#ff313d"/>
      <stop offset="0.356" stop-color="#fd3f49"/>
      <stop offset="0.42" stop-color="#fb5c63"/>
      <stop offset="0.474" stop-color="#f96d72"/>
      <stop offset="0.515" stop-color="#f97478"/>
      <stop offset="0.671" stop-color="#ff313d"/>
      <stop offset="0.692" stop-color="#f92c37"/>
      <stop offset="0.815" stop-color="#dd141a"/>
      <stop offset="0.922" stop-color="#cc0509"/>
      <stop offset="1" stop-color="#c70003"/>
    </linearGradient>
    <linearGradient id="linear-gradient-79" x1="130.748" y1="-186.227" x2="133.046" y2="-185.898" xlink:href="#linear-gradient-78"/>
    <linearGradient id="linear-gradient-80" x1="181.276" y1="-181.442" x2="184.016" y2="-181.225" xlink:href="#linear-gradient-78"/>
    <linearGradient id="linear-gradient-81" x1="75.655" y1="-696.541" x2="76.126" y2="-696.541" xlink:href="#linear-gradient-78"/>
    <linearGradient id="linear-gradient-82" x1="75.203" y1="-398.561" x2="75.826" y2="-398.561" xlink:href="#linear-gradient-78"/>
    <linearGradient id="linear-gradient-83" x1="99.906" y1="-668.927" x2="100.549" y2="-668.927" gradientUnits="objectBoundingBox">
      <stop offset="0" stop-color="#003400"/>
      <stop offset="0.079" stop-color="#005104"/>
      <stop offset="0.194" stop-color="#00770a"/>
      <stop offset="0.301" stop-color="#00920e"/>
      <stop offset="0.396" stop-color="#00a311"/>
      <stop offset="0.468" stop-color="#00a912"/>
      <stop offset="0.602" stop-color="#00a912"/>
      <stop offset="0.665" stop-color="#009d10"/>
      <stop offset="0.777" stop-color="#007f0b"/>
      <stop offset="0.924" stop-color="#004f04"/>
      <stop offset="1" stop-color="#003400"/>
    </linearGradient>
    <linearGradient id="linear-gradient-84" x1="318" y1="-446.408" x2="322.981" y2="-445.78" xlink:href="#linear-gradient-83"/>
    <linearGradient id="linear-gradient-85" x1="421.475" y1="-585.61" x2="426.18" y2="-585.212" xlink:href="#linear-gradient-83"/>
    <linearGradient id="linear-gradient-86" x1="711.131" y1="-563.75" x2="719.081" y2="-563.367" xlink:href="#linear-gradient-83"/>
    <linearGradient id="linear-gradient-87" x1="839.722" y1="-671.219" x2="845.6" y2="-670.795" xlink:href="#linear-gradient-83"/>
    <linearGradient id="linear-gradient-88" x1="645.496" y1="-535.116" x2="655.626" y2="-534.365" xlink:href="#linear-gradient-83"/>
    <linearGradient id="linear-gradient-89" x1="140.047" y1="-358.104" x2="140.913" y2="-358.104" xlink:href="#linear-gradient-83"/>
    <linearGradient id="linear-gradient-90" x1="141.99" y1="-328.763" x2="142.895" y2="-328.763" xlink:href="#linear-gradient-83"/>
    <linearGradient id="linear-gradient-91" x1="98.974" y1="-500.08" x2="99.672" y2="-500.08" xlink:href="#linear-gradient-78"/>
    <linearGradient id="linear-gradient-92" x1="504.064" y1="-554.35" x2="512.734" y2="-553.85" xlink:href="#linear-gradient-78"/>
    <linearGradient id="linear-gradient-93" x1="730.419" y1="-725.077" x2="739.382" y2="-724.761" xlink:href="#linear-gradient-78"/>
    <linearGradient id="linear-gradient-94" x1="447.266" y1="-933.7" x2="452.749" y2="-933.294" xlink:href="#linear-gradient-78"/>
    <linearGradient id="linear-gradient-95" x1="480.266" y1="-1384.584" x2="483.956" y2="-1384.023" xlink:href="#linear-gradient-78"/>
    <linearGradient id="linear-gradient-96" x1="378.904" y1="-957.612" x2="385.415" y2="-956.75" xlink:href="#linear-gradient-78"/>
    <linearGradient id="linear-gradient-97" x1="156.06" y1="-428.081" x2="157.12" y2="-428.081" xlink:href="#linear-gradient-78"/>
    <linearGradient id="linear-gradient-98" x1="161.169" y1="-406.191" x2="162.297" y2="-406.191" xlink:href="#linear-gradient-78"/>
    <linearGradient id="linear-gradient-99" x1="64.084" y1="-106.121" x2="64.925" y2="-106.121" gradientUnits="objectBoundingBox">
      <stop offset="0" stop-color="#0038ab"/>
      <stop offset="0.157" stop-color="#0061c9"/>
      <stop offset="0.377" stop-color="#0097ef"/>
      <stop offset="0.484" stop-color="#00acff"/>
      <stop offset="0.57" stop-color="#00acff"/>
      <stop offset="0.637" stop-color="#00a1f7"/>
      <stop offset="0.753" stop-color="#0085e3"/>
      <stop offset="0.902" stop-color="#0059c3"/>
      <stop offset="1" stop-color="#0038ab"/>
    </linearGradient>
    <linearGradient id="linear-gradient-100" x1="97.38" y1="-65.145" x2="100.519" y2="-64.54" xlink:href="#linear-gradient-99"/>
    <linearGradient id="linear-gradient-101" x1="68.591" y1="-72.494" x2="69.356" y2="-72.494" xlink:href="#linear-gradient-99"/>
    <linearGradient id="linear-gradient-102" x1="142.841" y1="-41.289" x2="147.232" y2="-41.06" xlink:href="#linear-gradient-99"/>
    <linearGradient id="linear-gradient-103" x1="61.898" y1="-47.187" x2="62.586" y2="-47.187" xlink:href="#linear-gradient-99"/>
    <linearGradient id="linear-gradient-104" x1="86.73" y1="-233.701" x2="88.921" y2="-233.114" gradientUnits="objectBoundingBox">
      <stop offset="0" stop-color="#ab3c00"/>
      <stop offset="0.468" stop-color="#ffc700"/>
      <stop offset="0.591" stop-color="#ffc700"/>
      <stop offset="1" stop-color="#ab3c00"/>
    </linearGradient>
    <linearGradient id="linear-gradient-105" x1="47.939" y1="-590.502" x2="48.351" y2="-590.502" xlink:href="#linear-gradient-104"/>
    <linearGradient id="linear-gradient-106" x1="174.188" y1="-1952.166" x2="177.96" y2="-1953.176" xlink:href="#linear-gradient-104"/>
    <linearGradient id="linear-gradient-107" x1="44.261" y1="-147.072" x2="45.864" y2="-146.367" xlink:href="#linear-gradient-104"/>
    <linearGradient id="linear-gradient-108" x1="68.977" y1="-110.83" x2="69.42" y2="-110.83" xlink:href="#linear-gradient-78"/>
    <linearGradient id="linear-gradient-109" x1="171.975" y1="-251.888" x2="172.388" y2="-251.888" xlink:href="#linear-gradient-78"/>
    <linearGradient id="linear-gradient-110" x1="327.401" y1="-109.514" x2="334.012" y2="-109.415" xlink:href="#linear-gradient-78"/>
    <linearGradient id="linear-gradient-111" x1="65.665" y1="-111.425" x2="66.134" y2="-111.425" xlink:href="#linear-gradient-78"/>
    <linearGradient id="linear-gradient-112" x1="161.378" y1="-103.856" x2="164.887" y2="-103.874" xlink:href="#linear-gradient-78"/>
    <linearGradient id="linear-gradient-113" x1="44.737" y1="-509.253" x2="45.115" y2="-509.253" xlink:href="#linear-gradient-99"/>
    <linearGradient id="linear-gradient-114" x1="110.973" y1="-1224.167" x2="111.313" y2="-1224.167" xlink:href="#linear-gradient-99"/>
    <linearGradient id="linear-gradient-115" x1="87.446" y1="-472.898" x2="89.714" y2="-472.733" xlink:href="#linear-gradient-99"/>
    <linearGradient id="linear-gradient-116" x1="44.849" y1="-446.709" x2="45.263" y2="-446.709" xlink:href="#linear-gradient-99"/>
    <linearGradient id="linear-gradient-117" x1="99.608" y1="-318.026" x2="102.441" y2="-318.049" xlink:href="#linear-gradient-99"/>
    <linearGradient id="linear-gradient-118" x1="18.625" y1="-12.011" x2="19.674" y2="-12.011" xlink:href="#linear-gradient-104"/>
    <linearGradient id="linear-gradient-119" x1="138.858" y1="-35.077" x2="151.074" y2="-36.445" xlink:href="#linear-gradient-104"/>
    <linearGradient id="linear-gradient-120" x1="23.543" y1="-15.098" x2="26.764" y2="-15.539" xlink:href="#linear-gradient-104"/>
    <linearGradient id="linear-gradient-121" x1="20.604" y1="-14.234" x2="23.3" y2="-15.327" xlink:href="#linear-gradient-104"/>
    <linearGradient id="linear-gradient-122" x1="52.883" y1="-10.068" x2="54.084" y2="-10.068" xlink:href="#linear-gradient-104"/>
    <linearGradient id="linear-gradient-123" x1="19.379" y1="-9.971" x2="20.45" y2="-9.971" xlink:href="#linear-gradient-104"/>
    <linearGradient id="linear-gradient-124" x1="12.739" y1="-11.64" x2="14.866" y2="-12.88" xlink:href="#linear-gradient-104"/>
    <linearGradient id="linear-gradient-125" x1="65.616" y1="-134.627" x2="66.332" y2="-134.627" xlink:href="#linear-gradient-99"/>
    <linearGradient id="linear-gradient-126" x1="138.457" y1="-313.515" x2="142.137" y2="-312.389" xlink:href="#linear-gradient-99"/>
    <linearGradient id="linear-gradient-127" x1="181.56" y1="-428.13" x2="184.995" y2="-427.387" xlink:href="#linear-gradient-99"/>
    <linearGradient id="linear-gradient-128" x1="315.085" y1="-242.451" x2="321.075" y2="-242.031" xlink:href="#linear-gradient-99"/>
    <linearGradient id="linear-gradient-129" x1="484.33" y1="-237.84" x2="490.091" y2="-237.456" xlink:href="#linear-gradient-99"/>
    <linearGradient id="linear-gradient-130" x1="395.337" y1="-204.582" x2="405.913" y2="-203.849" xlink:href="#linear-gradient-99"/>
    <linearGradient id="linear-gradient-131" x1="80.698" y1="-228.818" x2="81.544" y2="-228.818" xlink:href="#linear-gradient-99"/>
    <linearGradient id="linear-gradient-132" x1="80.157" y1="-202.167" x2="81.023" y2="-202.167" xlink:href="#linear-gradient-99"/>
    <linearGradient id="linear-gradient-133" x1="305.029" y1="-157.39" x2="306.888" y2="-157.39" xlink:href="#linear-gradient-78"/>
    <linearGradient id="linear-gradient-134" x1="169.567" y1="-625.485" x2="171.323" y2="-626.335" xlink:href="#linear-gradient-78"/>
    <linearGradient id="linear-gradient-135" x1="138.019" y1="-497.441" x2="139.921" y2="-499.254" xlink:href="#linear-gradient-78"/>
    <linearGradient id="linear-gradient-136" x1="419.952" y1="-229.843" x2="421.154" y2="-229.843" xlink:href="#linear-gradient-78"/>
    <linearGradient id="linear-gradient-137" x1="454.886" y1="-172.929" x2="458.134" y2="-172.848" xlink:href="#linear-gradient-78"/>
    <linearGradient id="linear-gradient-138" x1="26.211" y1="-420.557" x2="26.703" y2="-420.557" xlink:href="#linear-gradient-83"/>
    <linearGradient id="linear-gradient-139" x1="120.996" y1="-417.255" x2="123.288" y2="-417.027" xlink:href="#linear-gradient-83"/>
    <linearGradient id="linear-gradient-140" x1="105.008" y1="-201.522" x2="108.407" y2="-201.292" xlink:href="#linear-gradient-83"/>
    <linearGradient id="linear-gradient-141" x1="111.002" y1="-302.462" x2="114.463" y2="-302.068" xlink:href="#linear-gradient-83"/>
    <linearGradient id="linear-gradient-142" x1="31.25" y1="-781.756" x2="31.609" y2="-781.756" xlink:href="#linear-gradient-83"/>
    <linearGradient id="linear-gradient-143" x1="33.439" y1="-608.252" x2="33.863" y2="-608.252" xlink:href="#linear-gradient-83"/>
  </defs>
  <g id="Group_958" data-name="Group 958" transform="translate(21.986 -406.421)">
    <g id="Group_936" data-name="Group 936" transform="translate(-21.986 406.421)">
      <g id="Group_850" data-name="Group 850" transform="translate(0 138.12)">
        <path id="Path_1015" data-name="Path 1015" d="M59.436,565.484l-12.412,5.754-9.54,4.428-10.663,4.949-7.691,3.572-8.1,3.753-5.8,2.686-6.039,2.8-4.655,2.164-5.373,2.491-3.646,1.692-5.316,2.467a1.538,1.538,0,0,1-2.042-2.044l2.473-5.307,1.694-3.629,2.506-5.356,2.165-4.64,2.808-6.031,2.694-5.771,3.769-8.066,3.581-7.667L4.821,543.1l4.419-9.482,5.975-12.8Z" transform="translate(21.986 -513.914)" fill="url(#linear-gradient)"/>
        <path id="Path_1016" data-name="Path 1016" d="M-11.386,583.207l-3.646,1.692a30.907,30.907,0,0,1-2.581-2.319,30.916,30.916,0,0,1-2.3-2.565l1.694-3.629a32.251,32.251,0,0,0,3.15,3.653A31.3,31.3,0,0,0-11.386,583.207Z" transform="translate(22.541 -499.039)" fill="url(#linear-gradient-2)"/>
        <path id="Path_1017" data-name="Path 1017" d="M-2.245,580.663-6.9,582.827a39.9,39.9,0,0,1-5.283-4.452,40.433,40.433,0,0,1-4.421-5.233l2.165-4.64A40.249,40.249,0,0,0-2.245,580.663Z" transform="translate(23.428 -501.15)" fill="url(#linear-gradient-3)"/>
        <path id="Path_1018" data-name="Path 1018" d="M8.54,577.669l-5.8,2.686A48.8,48.8,0,0,1-12.68,564.964l2.694-5.771A47.532,47.532,0,0,0,8.54,577.669Z" transform="translate(24.478 -503.642)" fill="url(#linear-gradient-4)"/>
        <path id="Path_1019" data-name="Path 1019" d="M41.362,568.536l-9.54,4.428a68.794,68.794,0,0,1-19.046-13.707A69.026,69.026,0,0,1-.84,540.4l4.419-9.482c2.76,7.284,7.943,15.22,15.131,22.407C25.971,560.584,34.012,565.81,41.362,568.536Z" transform="translate(27.648 -511.212)" fill="url(#linear-gradient-5)"/>
        <path id="Path_1020" data-name="Path 1020" d="M22.965,573.666l-7.691,3.572a62.561,62.561,0,0,1-22.856-22.79L-4,546.782a57.906,57.906,0,0,0,11.281,15.53A57.888,57.888,0,0,0,22.965,573.666Z" transform="translate(25.843 -506.965)" fill="url(#linear-gradient-6)"/>
        <path id="Path_1021" data-name="Path 1021" d="M40.614,541.079l-62.5,54.909a1.56,1.56,0,0,0,.8.833l75.8-41.5Z" transform="translate(22.013 -508.492)" fill="url(#linear-gradient-7)" style="mix-blend-mode: screen;isolation: isolate"/>
        <ellipse id="Ellipse_57" data-name="Ellipse 57" cx="8.973" cy="31.487" rx="8.973" ry="31.487" transform="matrix(0.707, -0.707, 0.707, 0.707, 31.245, 12.69)" fill="url(#linear-gradient-8)"/>
      </g>
      <g id="Group_851" data-name="Group 851" transform="translate(176.042 153.505)">
        <path id="Path_1022" data-name="Path 1022" d="M119.615,529.272c-.555-.16-1.046-.549-1.752-1.763a2.954,2.954,0,0,0-.984,1.581,5.275,5.275,0,0,0,2.021,1.73A2.707,2.707,0,0,1,119.615,529.272Z" transform="translate(-116.879 -527.509)" fill="url(#linear-gradient-9)"/>
      </g>
      <g id="Group_852" data-name="Group 852" transform="translate(198.906 149.572)">
        <path id="Path_1023" data-name="Path 1023" d="M134.915,527.84a2.679,2.679,0,0,1,.955,2.023,21.578,21.578,0,0,0,5.49-2.947,5.121,5.121,0,0,0-1.133-2.509A12.321,12.321,0,0,1,134.915,527.84Z" transform="translate(-134.915 -524.407)" fill="url(#linear-gradient-10)"/>
      </g>
      <g id="Group_853" data-name="Group 853" transform="translate(129.502 132.455)">
        <path id="Path_1024" data-name="Path 1024" d="M80.338,510.917a1.439,1.439,0,0,0-.155,1,9.035,9.035,0,0,1,3.229.4,1.48,1.48,0,0,1,.287-.918A8.043,8.043,0,0,0,80.338,510.917Z" transform="translate(-80.167 -510.904)" fill="url(#linear-gradient-11)"/>
      </g>
      <g id="Group_854" data-name="Group 854" transform="translate(171.187 165.667)">
        <path id="Path_1025" data-name="Path 1025" d="M115.09,540.322a2.107,2.107,0,0,1,1.822-1.136,6.865,6.865,0,0,0-2.325-2.083,1.92,1.92,0,0,0-1.536,1.135A5.033,5.033,0,0,1,115.09,540.322Z" transform="translate(-113.05 -537.103)" fill="url(#linear-gradient-12)"/>
      </g>
      <g id="Group_855" data-name="Group 855" transform="translate(191.425 96.548)">
        <path id="Path_1026" data-name="Path 1026" d="M131.241,483.781a3.416,3.416,0,0,1-1.6-1.2.925.925,0,0,1-.629.4,4.09,4.09,0,0,0,1.658,1.49A1.716,1.716,0,0,0,131.241,483.781Z" transform="translate(-129.014 -482.58)" fill="url(#linear-gradient-13)"/>
      </g>
      <g id="Group_856" data-name="Group 856" transform="translate(162.872 106.281)">
        <path id="Path_1027" data-name="Path 1027" d="M110.491,491.749a9.4,9.4,0,0,1-3.365-1.491,3,3,0,0,0-.635,1.812,12.448,12.448,0,0,0,3.351,1.756C109.729,492.79,109.839,492.242,110.491,491.749Z" transform="translate(-106.491 -490.258)" fill="url(#linear-gradient-14)"/>
      </g>
      <g id="Group_857" data-name="Group 857" transform="translate(154.235 37.713)">
        <path id="Path_1028" data-name="Path 1028" d="M100.159,442.492c.938.532,1.862.447,3.266-.046a12.932,12.932,0,0,1-.174-5.9,4.857,4.857,0,0,1-3.362-.376A15.519,15.519,0,0,0,100.159,442.492Z" transform="translate(-99.678 -436.17)" fill="url(#linear-gradient-15)"/>
      </g>
      <g id="Group_858" data-name="Group 858" transform="translate(200.86 93.471)">
        <path id="Path_1029" data-name="Path 1029" d="M140.857,483.04a2.813,2.813,0,0,0-.209-2.376,17.448,17.448,0,0,1-4.067-.511,2.584,2.584,0,0,1-.125,1.312A15.524,15.524,0,0,1,140.857,483.04Z" transform="translate(-136.456 -480.153)" fill="url(#linear-gradient-16)"/>
      </g>
      <g id="Group_859" data-name="Group 859" transform="translate(89.657 184.568)">
        <path id="Path_1030" data-name="Path 1030" d="M48.737,557.628a3.42,3.42,0,0,0,2.868,1.089,12.144,12.144,0,0,1,1.889-5.212,4.57,4.57,0,0,1-2.807-1.493A14.593,14.593,0,0,0,48.737,557.628Z" transform="translate(-48.737 -552.012)" fill="url(#linear-gradient-17)"/>
      </g>
      <g id="Group_860" data-name="Group 860" transform="translate(41.462 21.744)">
        <path id="Path_1031" data-name="Path 1031" d="M12.732,423.573a2.838,2.838,0,0,0-2.012,1.317,17.5,17.5,0,0,1,1.482,3.855,2.609,2.609,0,0,1,1.226-.513A15.639,15.639,0,0,1,12.732,423.573Z" transform="translate(-10.72 -423.573)" fill="url(#linear-gradient-18)"/>
      </g>
      <g id="Group_861" data-name="Group 861" transform="translate(76.663 84.421)">
        <path id="Path_1032" data-name="Path 1032" d="M40.1,473.014a19.072,19.072,0,0,0-1.611,6.455,7.645,7.645,0,0,0,3.963-.813,6.358,6.358,0,0,1,.92-3.97A4.28,4.28,0,0,1,40.1,473.014Z" transform="translate(-38.487 -473.014)" fill="url(#linear-gradient-19)"/>
      </g>
      <g id="Group_862" data-name="Group 862" transform="translate(29.451 90.246)">
        <path id="Path_1033" data-name="Path 1033" d="M1.308,478.056a10.769,10.769,0,0,0,.767,5.717,5.258,5.258,0,0,0,3.456-.529,9.846,9.846,0,0,1-.706-5.636A3.684,3.684,0,0,1,1.308,478.056Z" transform="translate(-1.246 -477.609)" fill="url(#linear-gradient-20)"/>
      </g>
      <g id="Group_863" data-name="Group 863" transform="translate(111.752 98.301)">
        <path id="Path_1034" data-name="Path 1034" d="M67.716,486.261a2.741,2.741,0,0,1,.981-.6,8.4,8.4,0,0,1-1.528-1.7,1.526,1.526,0,0,0-1,.473A10.057,10.057,0,0,0,67.716,486.261Z" transform="translate(-66.166 -483.963)" fill="url(#linear-gradient-21)"/>
      </g>
      <g id="Group_864" data-name="Group 864" transform="translate(173.738 57.201)">
        <path id="Path_1035" data-name="Path 1035" d="M121.29,451.542c-1.066,1.06-2.572,1.681-6.228,1.748a7.709,7.709,0,0,0,2.345,4.238,13.723,13.723,0,0,0,6.5-2.4A7.031,7.031,0,0,1,121.29,451.542Z" transform="translate(-115.062 -451.542)" fill="url(#linear-gradient-22)"/>
      </g>
      <g id="Group_865" data-name="Group 865" transform="translate(153.564 175.051)">
        <path id="Path_1036" data-name="Path 1036" d="M99.148,545.079a2.719,2.719,0,0,1,1.326.876.743.743,0,0,1,.48-.349,3.243,3.243,0,0,0-1.388-1.1A1.376,1.376,0,0,0,99.148,545.079Z" transform="translate(-99.148 -544.505)" fill="url(#linear-gradient-23)"/>
      </g>
      <g id="Group_866" data-name="Group 866" transform="translate(65.956 114.563)">
        <path id="Path_1037" data-name="Path 1037" d="M30.106,498.1a2.5,2.5,0,0,0,.615,2.161,8.914,8.914,0,0,1,3.891-1.171,3.341,3.341,0,0,1-.351-2.3A10.656,10.656,0,0,0,30.106,498.1Z" transform="translate(-30.041 -496.791)" fill="url(#linear-gradient-24)"/>
      </g>
      <g id="Group_867" data-name="Group 867" transform="translate(106.243 123.544)">
        <path id="Path_1038" data-name="Path 1038" d="M61.82,512.085a4.774,4.774,0,0,0,3.826-1.312,29.388,29.388,0,0,1-.816-6.9,4.391,4.391,0,0,1-2.211.328A26.257,26.257,0,0,1,61.82,512.085Z" transform="translate(-61.82 -503.875)" fill="url(#linear-gradient-25)"/>
      </g>
      <g id="Group_868" data-name="Group 868" transform="translate(146.377 9.831)">
        <path id="Path_1039" data-name="Path 1039" d="M93.479,422.387a4.776,4.776,0,0,0,3.825-1.312,29.4,29.4,0,0,1-.816-6.9,4.375,4.375,0,0,1-2.211.328A26.264,26.264,0,0,1,93.479,422.387Z" transform="translate(-93.479 -414.176)" fill="url(#linear-gradient-26)"/>
      </g>
      <g id="Group_869" data-name="Group 869" transform="translate(161.37 117.513)">
        <path id="Path_1040" data-name="Path 1040" d="M114.7,501.407a5.5,5.5,0,0,0-4.071-2.289,34.156,34.156,0,0,1-5.321,6.005,5.062,5.062,0,0,1,1.983,1.653A30.288,30.288,0,0,1,114.7,501.407Z" transform="translate(-105.306 -499.118)" fill="url(#linear-gradient-27)"/>
      </g>
      <g id="Group_870" data-name="Group 870" transform="translate(81.997 167.526)">
        <path id="Path_1041" data-name="Path 1041" d="M42.695,540.662a3.244,3.244,0,0,1,.847,1.084,10.038,10.038,0,0,1,1.81-2.049,1.831,1.831,0,0,0-.7-1.128A12,12,0,0,0,42.695,540.662Z" transform="translate(-42.695 -538.569)" fill="url(#linear-gradient-28)"/>
      </g>
      <g id="Group_871" data-name="Group 871" transform="translate(92.629 71.252)">
        <path id="Path_1042" data-name="Path 1042" d="M55.178,462.626a6.268,6.268,0,0,0-3.59,1.647,9.356,9.356,0,0,1-.507,2.809c.857-.385,1.477-.193,2.577.563A16.235,16.235,0,0,1,55.178,462.626Z" transform="translate(-51.081 -462.626)" fill="url(#linear-gradient-29)"/>
      </g>
      <g id="Group_872" data-name="Group 872" transform="translate(65.142 170.433)">
        <path id="Path_1043" data-name="Path 1043" d="M32.065,543.676a3.08,3.08,0,0,1,1.169-1.869,10.749,10.749,0,0,0-3.427-.944,4.925,4.925,0,0,0-.408,2.079A6.244,6.244,0,0,1,32.065,543.676Z" transform="translate(-29.399 -540.862)" fill="url(#linear-gradient-30)"/>
      </g>
      <g id="Group_873" data-name="Group 873" transform="translate(145.693 135.647)">
        <path id="Path_1044" data-name="Path 1044" d="M92.939,518.918c.317.63.81.885,1.63,1.274a18.4,18.4,0,0,1,3.931-5.345,3.01,3.01,0,0,1-1.346-1.425A16.362,16.362,0,0,0,92.939,518.918Z" transform="translate(-92.939 -513.422)" fill="url(#linear-gradient-31)"/>
      </g>
      <g id="Group_874" data-name="Group 874" transform="translate(222.711 104.215)">
        <path id="Path_1045" data-name="Path 1045" d="M153.693,493.268a2.039,2.039,0,0,0,1.383.4,12.767,12.767,0,0,1,1.14-4.47,2.093,2.093,0,0,1-1.24-.567A11.364,11.364,0,0,0,153.693,493.268Z" transform="translate(-153.693 -488.628)" fill="url(#linear-gradient-32)"/>
      </g>
      <g id="Group_875" data-name="Group 875" transform="translate(175.621 124.866)">
        <path id="Path_1046" data-name="Path 1046" d="M121.453,510.5a2.61,2.61,0,0,1,1.533-1.547,21.028,21.028,0,0,0-4.519-4.04,4.992,4.992,0,0,0-1.919,1.87A12.005,12.005,0,0,1,121.453,510.5Z" transform="translate(-116.547 -504.918)" fill="url(#linear-gradient-33)"/>
      </g>
      <g id="Group_876" data-name="Group 876" transform="translate(88.531 109.377)">
        <path id="Path_1047" data-name="Path 1047" d="M47.849,494.455a1.706,1.706,0,0,0,1.014,1.368,2.59,2.59,0,0,0,1.354-1A3.862,3.862,0,0,1,49.9,492.7,6.7,6.7,0,0,1,47.849,494.455Z" transform="translate(-47.849 -492.7)" fill="url(#linear-gradient-34)"/>
      </g>
      <g id="Group_877" data-name="Group 877" transform="translate(78.308 131.461)">
        <path id="Path_1048" data-name="Path 1048" d="M43.075,511.809a2.341,2.341,0,0,0-1.62-1.689,3.548,3.548,0,0,0-1.67,1.6,5.305,5.305,0,0,1,.8,2.835A9.259,9.259,0,0,1,43.075,511.809Z" transform="translate(-39.785 -510.12)" fill="url(#linear-gradient-35)"/>
      </g>
      <g id="Group_878" data-name="Group 878" transform="translate(97.062 179.423)">
        <path id="Path_1049" data-name="Path 1049" d="M55.663,547.954a1.928,1.928,0,0,0-1.085.6,2.078,2.078,0,0,1,.744,1.069,2.934,2.934,0,0,0,1.123-.4A3.888,3.888,0,0,1,55.663,547.954Z" transform="translate(-54.578 -547.954)" fill="url(#linear-gradient-36)"/>
      </g>
      <g id="Group_879" data-name="Group 879" transform="translate(114.149 109.299)">
        <path id="Path_1050" data-name="Path 1050" d="M69.136,494.765a6.308,6.308,0,0,0,.52-2.126,2.512,2.512,0,0,0-1.3.274,2.087,2.087,0,0,1-.3,1.307A1.411,1.411,0,0,1,69.136,494.765Z" transform="translate(-68.057 -492.639)" fill="url(#linear-gradient-37)"/>
      </g>
      <g id="Group_880" data-name="Group 880" transform="translate(74.022 16.724)">
        <path id="Path_1051" data-name="Path 1051" d="M38.814,424.363a13.994,13.994,0,0,0,1.161-4.749,5.617,5.617,0,0,0-2.909.611,4.664,4.664,0,0,1-.662,2.921A3.142,3.142,0,0,1,38.814,424.363Z" transform="translate(-36.404 -419.613)" fill="url(#linear-gradient-38)"/>
      </g>
      <g id="Group_881" data-name="Group 881" transform="translate(127.251 157.165)">
        <path id="Path_1052" data-name="Path 1052" d="M80.111,530.4a2.518,2.518,0,0,1-1.719.52,8.727,8.727,0,0,0,1.6,2.416,4.009,4.009,0,0,0,1.365-1.056A5.106,5.106,0,0,1,80.111,530.4Z" transform="translate(-78.392 -530.396)" fill="url(#linear-gradient-39)"/>
      </g>
      <g id="Group_882" data-name="Group 882" transform="translate(122.263 26.853)">
        <path id="Path_1053" data-name="Path 1053" d="M74.835,427.6a7.855,7.855,0,0,0-.152,4.208,3.844,3.844,0,0,0,2.551.044,7.184,7.184,0,0,1,.185-4.14A2.687,2.687,0,0,1,74.835,427.6Z" transform="translate(-74.457 -427.603)" fill="url(#linear-gradient-40)"/>
      </g>
      <g id="Group_883" data-name="Group 883" transform="translate(138.548 125.653)">
        <path id="Path_1054" data-name="Path 1054" d="M87.742,505.539a3.445,3.445,0,0,1-.439,1.973.938.938,0,0,1,.633.411,4.128,4.128,0,0,0,.679-2.149A1.722,1.722,0,0,0,87.742,505.539Z" transform="translate(-87.303 -505.539)" fill="url(#linear-gradient-41)"/>
      </g>
      <g id="Group_884" data-name="Group 884" transform="translate(134.806 193.883)">
        <path id="Path_1055" data-name="Path 1055" d="M84.484,559.557a1.141,1.141,0,0,0,.043,1.141,1.727,1.727,0,0,0,1.13-.042,2.592,2.592,0,0,1,.626-1.3A4.5,4.5,0,0,1,84.484,559.557Z" transform="translate(-84.351 -559.36)" fill="url(#linear-gradient-42)"/>
      </g>
      <g id="Group_885" data-name="Group 885" transform="translate(155.456 64.858)">
        <path id="Path_1056" data-name="Path 1056" d="M100.952,462.205a1.936,1.936,0,0,1,1.611.105,15.578,15.578,0,0,0,.058-4.5,3.709,3.709,0,0,0-1.98-.162A8.908,8.908,0,0,1,100.952,462.205Z" transform="translate(-100.641 -457.582)" fill="url(#linear-gradient-43)"/>
      </g>
      <g id="Group_886" data-name="Group 886" transform="translate(84.747 41.769)">
        <path id="Path_1057" data-name="Path 1057" d="M46.444,439.369a2.791,2.791,0,0,0-1.5.918,4.17,4.17,0,0,1-.077,1.269c.359-.216.643-.164,1.17.114A7.252,7.252,0,0,1,46.444,439.369Z" transform="translate(-44.864 -439.369)" fill="url(#linear-gradient-44)"/>
      </g>
      <g id="Group_887" data-name="Group 887" transform="translate(86.328)">
        <path id="Path_1058" data-name="Path 1058" d="M51.31,406.671c-1.071.531-2.362.62-5.136-.25a6.124,6.124,0,0,0,.7,3.787,10.905,10.905,0,0,0,5.5-.175A5.605,5.605,0,0,1,51.31,406.671Z" transform="translate(-46.111 -406.421)" fill="url(#linear-gradient-45)"/>
      </g>
      <g id="Group_888" data-name="Group 888" transform="translate(54.101 88.888)">
        <path id="Path_1059" data-name="Path 1059" d="M21.369,478.419a2.724,2.724,0,0,1,.406-1.538.737.737,0,0,1-.483-.344,3.256,3.256,0,0,0-.6,1.668A1.364,1.364,0,0,0,21.369,478.419Z" transform="translate(-20.69 -476.538)" fill="url(#linear-gradient-46)"/>
      </g>
      <g id="Group_889" data-name="Group 889" transform="translate(61.282 72.149)">
        <path id="Path_1060" data-name="Path 1060" d="M27.486,467.623a1.816,1.816,0,0,0,1.245-.327,11.44,11.44,0,0,1-1.164-3.962,1.881,1.881,0,0,1-1.213.131A10.184,10.184,0,0,0,27.486,467.623Z" transform="translate(-26.354 -463.334)" fill="url(#linear-gradient-47)"/>
      </g>
      <g id="Group_890" data-name="Group 890" transform="translate(41.509 107.841)">
        <path id="Path_1061" data-name="Path 1061" d="M10.757,492.084a2.73,2.73,0,0,0,1.438.948,4.05,4.05,0,0,1,1.155-.461c-.34-.228-.412-.5-.387-1.083A7.059,7.059,0,0,1,10.757,492.084Z" transform="translate(-10.757 -491.488)" fill="url(#linear-gradient-48)"/>
      </g>
      <g id="Group_891" data-name="Group 891" transform="translate(102.138 51.375)">
        <path id="Path_1062" data-name="Path 1062" d="M62.963,447.267a3.956,3.956,0,0,0-3.344.1,24.409,24.409,0,0,1-1.037,5.653,3.609,3.609,0,0,1,1.827.28A21.743,21.743,0,0,1,62.963,447.267Z" transform="translate(-58.582 -446.947)" fill="url(#linear-gradient-49)"/>
      </g>
      <g id="Group_892" data-name="Group 892" transform="translate(60.489 97.821)">
        <path id="Path_1063" data-name="Path 1063" d="M27.717,483.584a6.915,6.915,0,0,0-1.988,3.129,3.378,3.378,0,0,0,1.918,1.17,6.332,6.332,0,0,1,1.984-3.065A2.361,2.361,0,0,1,27.717,483.584Z" transform="translate(-25.729 -483.584)" fill="url(#linear-gradient-50)"/>
      </g>
      <g id="Group_893" data-name="Group 893" transform="translate(127.751 108.746)">
        <path id="Path_1064" data-name="Path 1064" d="M82.755,498.045a6.658,6.658,0,0,0,2.871-3.178,7.164,7.164,0,0,1-3.621-2.665,10.127,10.127,0,0,0-3.22,2.573A13.391,13.391,0,0,1,82.755,498.045Z" transform="translate(-78.786 -492.202)" fill="url(#linear-gradient-51)"/>
      </g>
      <g id="Group_894" data-name="Group 894" transform="translate(91.284 130.997)">
        <path id="Path_1065" data-name="Path 1065" d="M50.688,512.156a7.717,7.717,0,0,0,2.068-1.72,3.086,3.086,0,0,0-1.486-.682,2.577,2.577,0,0,1-1.25,1.075A1.729,1.729,0,0,1,50.688,512.156Z" transform="translate(-50.02 -509.754)" fill="url(#linear-gradient-52)"/>
      </g>
      <g id="Group_895" data-name="Group 895" transform="translate(46.283 151.028)">
        <path id="Path_1066" data-name="Path 1066" d="M14.567,527.071a1.97,1.97,0,0,0,1.264.02,2.119,2.119,0,0,1-.112-1.322,2.991,2.991,0,0,0-1.2-.214A3.942,3.942,0,0,1,14.567,527.071Z" transform="translate(-14.523 -525.555)" fill="url(#linear-gradient-53)"/>
      </g>
      <g id="Group_896" data-name="Group 896" transform="translate(115.474 73.927)">
        <path id="Path_1067" data-name="Path 1067" d="M69.1,465.869A4.381,4.381,0,0,1,69.107,469a15.251,15.251,0,0,0,4.838-1.457,7.007,7.007,0,0,0-1.08-2.809A8.85,8.85,0,0,1,69.1,465.869Z" transform="translate(-69.102 -464.736)" fill="url(#linear-gradient-54)"/>
      </g>
      <g id="Group_897" data-name="Group 897" transform="translate(74.939 61.914)">
        <path id="Path_1068" data-name="Path 1068" d="M37.211,457.231a3.479,3.479,0,0,0,1.012,3.331,5.257,5.257,0,0,0,3.3-1,7.909,7.909,0,0,1,.843-4.3A13.728,13.728,0,0,1,37.211,457.231Z" transform="translate(-37.127 -455.26)" fill="url(#linear-gradient-55)"/>
      </g>
      <g id="Group_898" data-name="Group 898" transform="translate(163.67 177.239)">
        <path id="Path_1069" data-name="Path 1069" d="M109.416,546.231c-.961.2-1.479.78-2.3,1.749a25.712,25.712,0,0,1,5.826,7.2,4.2,4.2,0,0,1,2.4-1.315A22.8,22.8,0,0,0,109.416,546.231Z" transform="translate(-107.12 -546.231)" fill="url(#linear-gradient-56)"/>
      </g>
      <g id="Group_899" data-name="Group 899" transform="translate(35.825 66.021)">
        <path id="Path_1070" data-name="Path 1070" d="M8.533,464.538a8.789,8.789,0,0,1,.8-5.091,2.4,2.4,0,0,1-1.675-.947,10.53,10.53,0,0,0-1.386,5.578A4.4,4.4,0,0,0,8.533,464.538Z" transform="translate(-6.273 -458.5)" fill="url(#linear-gradient-57)"/>
      </g>
      <g id="Group_900" data-name="Group 900" transform="translate(60.732 143.423)">
        <path id="Path_1071" data-name="Path 1071" d="M27.383,519.556a5.415,5.415,0,0,1-1.463,1.772,16.79,16.79,0,0,1,4,2.214,3.05,3.05,0,0,0,1.588-1.548A20.049,20.049,0,0,0,27.383,519.556Z" transform="translate(-25.92 -519.556)" fill="url(#linear-gradient-58)"/>
      </g>
      <g id="Group_901" data-name="Group 901" transform="translate(109.771 2.009)">
        <path id="Path_1072" data-name="Path 1072" d="M64.6,410.525a2.106,2.106,0,0,1,.682,1.619,16.977,16.977,0,0,0,4.4-2.131,4.022,4.022,0,0,0-.806-2.007A9.666,9.666,0,0,1,64.6,410.525Z" transform="translate(-64.603 -408.006)" fill="url(#linear-gradient-59)"/>
      </g>
      <g id="Group_902" data-name="Group 902" transform="translate(125.943 183.019)">
        <path id="Path_1073" data-name="Path 1073" d="M82.721,552.111a2.852,2.852,0,0,1-1.976-1.321,22.961,22.961,0,0,0-3.385,5.687,5.452,5.452,0,0,0,2.4,1.665A13.094,13.094,0,0,1,82.721,552.111Z" transform="translate(-77.36 -550.79)" fill="url(#linear-gradient-60)"/>
      </g>
      <g id="Group_903" data-name="Group 903" transform="translate(104.949 150.14)">
        <path id="Path_1074" data-name="Path 1074" d="M60.8,526.6c.748.981,1.093,2.273.757,5.257a6.323,6.323,0,0,0,3.7-1.455A11.247,11.247,0,0,0,64,524.855,5.777,5.777,0,0,1,60.8,526.6Z" transform="translate(-60.8 -524.855)" fill="url(#linear-gradient-61)"/>
      </g>
      <g id="Group_904" data-name="Group 904" transform="translate(120.402 123.251)">
        <path id="Path_1075" data-name="Path 1075" d="M77.243,506.135a2.672,2.672,0,0,0-.332-2.238,16.459,16.459,0,0,1-3.878-.254,2.469,2.469,0,0,1-.044,1.25A14.677,14.677,0,0,1,77.243,506.135Z" transform="translate(-72.989 -503.644)" fill="url(#linear-gradient-62)"/>
      </g>
      <g id="Group_905" data-name="Group 905" transform="translate(138.611 96.223)">
        <path id="Path_1076" data-name="Path 1076" d="M89.852,483.7a2.823,2.823,0,0,0-1.183-1.379,3.041,3.041,0,0,1-1.316,1.379,4.3,4.3,0,0,0,.908,1.493A5.674,5.674,0,0,1,89.852,483.7Z" transform="translate(-87.353 -482.324)" fill="url(#linear-gradient-63)"/>
      </g>
      <g id="Group_906" data-name="Group 906" transform="translate(169.429 144.313)">
        <path id="Path_1077" data-name="Path 1077" d="M113,520.258a2.931,2.931,0,0,0-1.336,2.093,18.08,18.08,0,0,1,3.03,3,2.682,2.682,0,0,1,.937-1A16.161,16.161,0,0,1,113,520.258Z" transform="translate(-111.663 -520.258)" fill="url(#linear-gradient-64)"/>
      </g>
      <g id="Group_907" data-name="Group 907" transform="translate(184.58 105.279)">
        <path id="Path_1078" data-name="Path 1078" d="M125.822,494.419a5.15,5.15,0,0,0,.985-3.092,7.645,7.645,0,0,1-1.426-1.86c-.241.733-.7,1-1.767,1.254A13.328,13.328,0,0,1,125.822,494.419Z" transform="translate(-123.614 -489.467)" fill="url(#linear-gradient-65)"/>
      </g>
      <g id="Group_908" data-name="Group 908" transform="translate(131.623 58.713)">
        <path id="Path_1079" data-name="Path 1079" d="M88.431,453.658a4.632,4.632,0,0,0-3.846-.8,28.68,28.68,0,0,1-2.743,6.166,4.254,4.254,0,0,1,2.009.823A25.47,25.47,0,0,1,88.431,453.658Z" transform="translate(-81.841 -452.735)" fill="url(#linear-gradient-66)"/>
      </g>
      <g id="Group_909" data-name="Group 909" transform="translate(129.528 39.139)">
        <path id="Path_1080" data-name="Path 1080" d="M80.188,440.695a5.57,5.57,0,0,0,3.5.1,8.292,8.292,0,0,1,1.5-2.038c-.833-.029-1.251-.425-1.832-1.459A14.382,14.382,0,0,1,80.188,440.695Z" transform="translate(-80.188 -437.295)" fill="url(#linear-gradient-67)"/>
      </g>
      <g id="Group_910" data-name="Group 910" transform="translate(53.787 156.995)">
        <path id="Path_1081" data-name="Path 1081" d="M23.685,530.262a13.025,13.025,0,0,1-3.243,3.938,4.169,4.169,0,0,0,2.183,1.52,17.268,17.268,0,0,0,3.589-3.818C24.789,531.665,24.1,531.317,23.685,530.262Z" transform="translate(-20.442 -530.262)" fill="url(#linear-gradient-68)"/>
      </g>
      <g id="Group_911" data-name="Group 911" transform="translate(82.347 111.644)">
        <path id="Path_1082" data-name="Path 1082" d="M44.282,497.045a7.46,7.46,0,0,0,.515-2.557,3,3,0,0,0-1.536.389,2.493,2.493,0,0,1-.289,1.572A1.677,1.677,0,0,1,44.282,497.045Z" transform="translate(-42.971 -494.488)" fill="url(#linear-gradient-69)"/>
      </g>
      <g id="Group_912" data-name="Group 912" transform="translate(112.227 182.141)">
        <path id="Path_1083" data-name="Path 1083" d="M71.955,554.029a16.943,16.943,0,0,0-4.419-3.931,6.793,6.793,0,0,0-1,3.456,5.662,5.662,0,0,1,2.747,2.363A3.808,3.808,0,0,1,71.955,554.029Z" transform="translate(-66.541 -550.098)" fill="url(#linear-gradient-70)"/>
      </g>
      <g id="Group_913" data-name="Group 913" transform="translate(69.209 150.403)">
        <path id="Path_1084" data-name="Path 1084" d="M34.629,525.725a.834.834,0,0,1-.21-.663,6.712,6.712,0,0,0-1.812.681,1.593,1.593,0,0,0,.245.82A3.826,3.826,0,0,1,34.629,525.725Z" transform="translate(-32.607 -525.062)" fill="url(#linear-gradient-71)"/>
      </g>
      <g id="Group_914" data-name="Group 914" transform="translate(158.269 142.325)">
        <path id="Path_1085" data-name="Path 1085" d="M107.232,518.69a13.22,13.22,0,0,0-4.372,1.493,5.32,5.32,0,0,0,1.967,2.006,4.413,4.413,0,0,1,2.662-.961A2.972,2.972,0,0,1,107.232,518.69Z" transform="translate(-102.86 -518.69)" fill="url(#linear-gradient-72)"/>
      </g>
      <g id="Group_915" data-name="Group 915" transform="translate(39.609 35.692)">
        <path id="Path_1086" data-name="Path 1086" d="M14.395,436.049a2.286,2.286,0,0,1-1.214-1.473,18.458,18.458,0,0,0-3.922,3.589A4.36,4.36,0,0,0,10.721,440,10.531,10.531,0,0,1,14.395,436.049Z" transform="translate(-9.258 -434.576)" fill="url(#linear-gradient-73)"/>
      </g>
      <g id="Group_916" data-name="Group 916" transform="translate(94.347 94.751)">
        <path id="Path_1087" data-name="Path 1087" d="M52.712,481.163a1.386,1.386,0,0,0-.167,1.379,2.1,2.1,0,0,0,1.364.167,3.161,3.161,0,0,1,1-1.435A5.471,5.471,0,0,1,52.712,481.163Z" transform="translate(-52.437 -481.163)" fill="url(#linear-gradient-74)"/>
      </g>
      <g id="Group_917" data-name="Group 917" transform="translate(34.882 113.159)">
        <path id="Path_1088" data-name="Path 1088" d="M5.529,495.683a4.7,4.7,0,0,0,1.4,2.618,6.987,6.987,0,0,1,2.128.252c-.328-.625-.212-1.1.306-1.957A12.217,12.217,0,0,1,5.529,495.683Z" transform="translate(-5.529 -495.683)" fill="url(#linear-gradient-75)"/>
      </g>
      <g id="Group_918" data-name="Group 918" transform="translate(80.63 176.817)">
        <path id="Path_1089" data-name="Path 1089" d="M46.443,547.191a2.12,2.12,0,0,0-.75-1.293,13.32,13.32,0,0,1-4.077,2.527,2.175,2.175,0,0,1,.52,1.318A11.836,11.836,0,0,0,46.443,547.191Z" transform="translate(-41.616 -545.898)" fill="url(#linear-gradient-76)"/>
      </g>
      <g id="Group_919" data-name="Group 919" transform="translate(137.672 94.825)">
        <path id="Path_1090" data-name="Path 1090" d="M86.612,481.994a3,3,0,0,0,.562,1.838,3.216,3.216,0,0,1,1.861-.78,4.538,4.538,0,0,0-.248-1.832A6.028,6.028,0,0,1,86.612,481.994Z" transform="translate(-86.612 -481.221)" fill="url(#linear-gradient-77)"/>
      </g>
      <g id="Group_920" data-name="Group 920" transform="translate(86.1 145.576)">
        <path id="Path_1091" data-name="Path 1091" d="M101.028,525.662l-2.65,1.164s-3.027-4.125-6.2-4.394a3.5,3.5,0,0,0-1.561.213l2.651-1.162C96.931,520.075,101.028,525.662,101.028,525.662Z" transform="translate(-33.967 -521.255)" fill="url(#linear-gradient-78)"/>
        <path id="Path_1092" data-name="Path 1092" d="M62.767,548.5a4.613,4.613,0,0,1-1.372.293c3.283-3.334,3.764-13.463,10.519-16.7h0c.091-.043.185-.087.28-.128.065-.029.129-.055.193-.08a4.366,4.366,0,0,1,.944-.247c-6.176,4.2-6.292,14.8-10.328,16.755C62.93,548.435,62.849,548.471,62.767,548.5Z" transform="translate(-41.791 -518.474)" fill="url(#linear-gradient-79)"/>
        <path id="Path_1093" data-name="Path 1093" d="M86.7,539.413a4.99,4.99,0,0,1-1.528.4c3.861-3.676,3.548-15.793,6.775-17.358h0c.042-.021.084-.039.127-.057a3.5,3.5,0,0,1,1.561-.213C91.167,525.782,91.248,537.416,86.7,539.413Z" transform="translate(-35.425 -521.009)" fill="url(#linear-gradient-80)"/>
        <path id="Path_1094" data-name="Path 1094" d="M66.907,545.6l-2.642,1.16c-4.438,1.77-13.69-4.687-18.334-2.746l2.651-1.164c4.2-1.757,12.187,3.37,16.953,3.043A4.613,4.613,0,0,0,66.907,545.6Z" transform="translate(-45.931 -515.571)" fill="url(#linear-gradient-81)"/>
        <path id="Path_1095" data-name="Path 1095" d="M90.744,537.133l-2.65,1.164c-5.793,2.543-11.631-7.185-17.081-6.4a4.366,4.366,0,0,0-.944.247l2.65-1.162c5.243-2.022,10.873,7.1,16.5,6.553A4.99,4.99,0,0,0,90.744,537.133Z" transform="translate(-39.469 -518.729)" fill="url(#linear-gradient-82)"/>
      </g>
      <g id="Group_921" data-name="Group 921" transform="translate(65.441 146.902)">
        <path id="Path_1096" data-name="Path 1096" d="M43.851,535.806c-3.133,2.147-10.32-2.755-14.216-1.338l1.705-1.435c3.6-1.31,10,2.774,13.431,1.711a2.921,2.921,0,0,0,.687-.308l-1.179,1Z" transform="translate(-29.635 -519.497)" fill="url(#linear-gradient-83)"/>
        <path id="Path_1097" data-name="Path 1097" d="M44.451,530.785a10.608,10.608,0,0,1-4.374-3.726c-.553-.829-.648-1.326-.46-1.535C40.22,524.847,43.738,527.111,44.451,530.785Z" transform="translate(-26.986 -521.469)" fill="url(#linear-gradient-84)"/>
        <path id="Path_1098" data-name="Path 1098" d="M48.155,526.406A9.44,9.44,0,0,1,44.8,523.32c-.347-.567-.412-.881-.29-.982h0C44.895,522.017,47.148,523.825,48.155,526.406Z" transform="translate(-25.669 -522.3)" fill="url(#linear-gradient-85)"/>
        <path id="Path_1099" data-name="Path 1099" d="M47.234,530.39l-.094.079a2.356,2.356,0,0,1-.449.281,2.622,2.622,0,0,1-.517.191,3.723,3.723,0,0,0,.3-1.088,6.5,6.5,0,0,0-.442-3.183,10.214,10.214,0,0,0,2.192.938,5.816,5.816,0,0,1-.043.809,3.481,3.481,0,0,1-.473,1.421h0A2.485,2.485,0,0,1,47.234,530.39Z" transform="translate(-25.247 -521.13)" fill="url(#linear-gradient-86)"/>
        <path id="Path_1100" data-name="Path 1100" d="M52.159,526.706l-.008.006a2.366,2.366,0,0,1-1.093.489,4.216,4.216,0,0,0-.016-2.158l1.705-1.435C53.092,525.154,52.812,526.149,52.159,526.706Z" transform="translate(-23.904 -521.95)" fill="url(#linear-gradient-87)"/>
        <path id="Path_1101" data-name="Path 1101" d="M42.262,534.97a2.921,2.921,0,0,1-.687.308c.052-.1.1-.2.143-.3a7.154,7.154,0,0,0,.479-4.192,7.108,7.108,0,0,0,1.8.548,7.6,7.6,0,0,1-.57,2.21,3.31,3.31,0,0,1-.557.913h0A2.681,2.681,0,0,1,42.262,534.97Z" transform="translate(-26.438 -520.03)" fill="url(#linear-gradient-88)"/>
        <path id="Path_1102" data-name="Path 1102" d="M54.276,527.055l-1.708,1.436a3.943,3.943,0,0,1-3.567.28,10.211,10.211,0,0,1-2.192-.938,9.433,9.433,0,0,1-3.357-3.084c-.35-.57-.413-.884-.289-.985l1.7-1.434c-.122.1-.057.416.29.982a9.44,9.44,0,0,0,3.358,3.086,7.447,7.447,0,0,0,4.668,1.146A2.366,2.366,0,0,0,54.276,527.055Z" transform="translate(-26.029 -522.292)" fill="url(#linear-gradient-89)"/>
        <path id="Path_1103" data-name="Path 1103" d="M49.24,530.783l-1.729,1.455a3.361,3.361,0,0,1-2.608.5,7.108,7.108,0,0,1-1.8-.548,10.615,10.615,0,0,1-4.374-3.726c-.551-.828-.648-1.325-.46-1.535l1.706-1.435c-.188.209-.093.706.46,1.535a10.608,10.608,0,0,0,4.374,3.726,5.425,5.425,0,0,0,3.462.5,2.622,2.622,0,0,0,.517-.191A2.355,2.355,0,0,0,49.24,530.783Z" transform="translate(-27.346 -521.444)" fill="url(#linear-gradient-90)"/>
      </g>
      <g id="Group_922" data-name="Group 922" transform="translate(184.059 125.341)">
        <path id="Path_1104" data-name="Path 1104" d="M135.78,517.271c-3.721.761-8.437-6.551-12.577-6.761l2.128-.659c3.825.193,8.14,6.446,11.709,6.8a2.988,2.988,0,0,0,.753-.018l-1.477.468Z" transform="translate(-123.203 -504.072)" fill="url(#linear-gradient-91)"/>
        <path id="Path_1105" data-name="Path 1105" d="M138.195,513.046a10.622,10.622,0,0,1-2.58-5.134c-.186-.977-.081-1.473.174-1.592C136.606,505.93,138.967,509.383,138.195,513.046Z" transform="translate(-119.905 -505.026)" fill="url(#linear-gradient-92)"/>
        <path id="Path_1106" data-name="Path 1106" d="M143.288,510.465a9.434,9.434,0,0,1-1.894-4.148c-.1-.658-.037-.972.115-1.019h0C141.991,505.154,143.364,507.7,143.288,510.465Z" transform="translate(-118.346 -505.292)" fill="url(#linear-gradient-93)"/>
        <path id="Path_1107" data-name="Path 1107" d="M141.185,513.789l-.118.037a2.435,2.435,0,0,1-.524.084,2.59,2.59,0,0,1-.549-.025,3.75,3.75,0,0,0,.695-.887,6.51,6.51,0,0,0,.83-3.1,10.214,10.214,0,0,0,1.654,1.716,5.766,5.766,0,0,1-.355.729,3.467,3.467,0,0,1-.988,1.124h0A2.451,2.451,0,0,1,141.185,513.789Z" transform="translate(-118.708 -504.061)" fill="url(#linear-gradient-94)"/>
        <path id="Path_1108" data-name="Path 1108" d="M147.125,512.169l-.009,0a2.351,2.351,0,0,1-1.2.025,4.207,4.207,0,0,0,.823-1.994l2.13-.658C148.589,511.1,147.944,511.912,147.125,512.169Z" transform="translate(-117.122 -504.154)" fill="url(#linear-gradient-95)"/>
        <path id="Path_1109" data-name="Path 1109" d="M134.871,516.022a2.988,2.988,0,0,1-.753.018c.085-.07.167-.145.251-.226a7.144,7.144,0,0,0,2.071-3.675,7.177,7.177,0,0,0,1.443,1.2,7.558,7.558,0,0,1-1.384,1.813,3.3,3.3,0,0,1-.867.625h0A2.716,2.716,0,0,1,134.871,516.022Z" transform="translate(-120.281 -503.459)" fill="url(#linear-gradient-96)"/>
        <path id="Path_1110" data-name="Path 1110" d="M148.79,513.31l-2.131.659a3.943,3.943,0,0,1-3.4-1.13,10.214,10.214,0,0,1-1.654-1.716,9.441,9.441,0,0,1-1.894-4.148c-.1-.662-.037-.975.117-1.019l2.128-.659c-.152.047-.214.361-.115,1.019a9.434,9.434,0,0,0,1.894,4.148,7.452,7.452,0,0,0,3.855,2.871A2.351,2.351,0,0,0,148.79,513.31Z" transform="translate(-118.796 -505.291)" fill="url(#linear-gradient-97)"/>
        <path id="Path_1111" data-name="Path 1111" d="M142.715,514.784l-2.159.668a3.366,3.366,0,0,1-2.6-.55,7.177,7.177,0,0,1-1.443-1.2,10.612,10.612,0,0,1-2.58-5.134c-.186-.977-.081-1.473.174-1.592l2.13-.659c-.255.119-.36.615-.174,1.592a10.622,10.622,0,0,0,2.58,5.134,5.419,5.419,0,0,0,3,1.8,2.594,2.594,0,0,0,.549.025A2.435,2.435,0,0,0,142.715,514.784Z" transform="translate(-120.355 -505.019)" fill="url(#linear-gradient-98)"/>
      </g>
      <g id="Group_924" data-name="Group 924" transform="translate(41.464 106.252)">
        <path id="Path_1112" data-name="Path 1112" d="M22.019,519.414l-1.013,3.622c-.4,1.43-8.917-1.974-10.285,1.531l.879-3.14c.488-2.715,4.376-2.2,7.263-1.836C20.532,519.8,21.867,519.959,22.019,519.414Z" transform="translate(-10.721 -482.455)" fill="url(#linear-gradient-99)"/>
        <path id="Path_1113" data-name="Path 1113" d="M21.182,521.125c-.152.545-1.487.387-3.157.177-1.978-2.4-4.54-5.364-4.137-7.04a1.213,1.213,0,0,1,.055-.175,2.257,2.257,0,0,1,1.531-1.184C17.124,515.934,21.507,519.965,21.182,521.125Z" transform="translate(-9.884 -484.166)" fill="url(#linear-gradient-100)"/>
        <path id="Path_1114" data-name="Path 1114" d="M24.429,507.759l-1.013,3.621c-.676,2.416-5.406,2.04-7.961,2.9a2.257,2.257,0,0,0-1.531,1.184l1.01-3.612c.75-2.012,5.786-1.43,8.238-2.7A2.282,2.282,0,0,0,24.429,507.759Z" transform="translate(-9.864 -485.544)" fill="url(#linear-gradient-101)"/>
        <g id="Group_923" data-name="Group 923" transform="translate(9.679)">
          <path id="Path_1115" data-name="Path 1115" d="M23.242,510.314a2.282,2.282,0,0,1-1.258,1.4c-1.061-2.546-4.182-5.463-3.542-10.284a10.666,10.666,0,0,1,.312-1.512,9.767,9.767,0,0,1,.657-1.7C18.866,504.2,24.116,507.187,23.242,510.314Z" transform="translate(-18.356 -488.098)" fill="url(#linear-gradient-102)"/>
          <path id="Path_1116" data-name="Path 1116" d="M30.229,490.235l-1.013,3.622s-7.132.962-9.889,6.5a9.767,9.767,0,0,0-.657,1.7l1.015-3.628C21.688,491.387,30.229,490.235,30.229,490.235Z" transform="translate(-18.272 -490.235)" fill="url(#linear-gradient-103)"/>
        </g>
      </g>
      <g id="Group_925" data-name="Group 925" transform="translate(117.51 101.046)">
        <path id="Path_1117" data-name="Path 1117" d="M126.806,501.095l-4.834,1.452a6.966,6.966,0,0,0,1.921-1.067c4.055-3.139,5.563-10.505,9.448-13.9l4.833-1.452C133.729,490.01,132.4,499.089,126.806,501.095Z" transform="translate(-56.984 -486.128)" fill="url(#linear-gradient-104)"/>
        <path id="Path_1118" data-name="Path 1118" d="M127.247,500.558h0a6.906,6.906,0,0,1-1.244.186c-3.755.224-8.988-2.272-12.531-3.378a31.31,31.31,0,0,0-11.39-1.578,21.669,21.669,0,0,0-2.263.264,20.566,20.566,0,0,1,2.363-.872l.033-.009a20.985,20.985,0,0,1,4.7-.833,31.307,31.307,0,0,1,11.39,1.578c3.236,1.01,7.883,3.179,11.524,3.377a6.966,6.966,0,0,1-1.921,1.067A6.159,6.159,0,0,1,127.247,500.558Z" transform="translate(-62.916 -483.944)" fill="url(#linear-gradient-105)"/>
        <path id="Path_1119" data-name="Path 1119" d="M76.269,515.879a9.3,9.3,0,0,1-5.561-.133l4.833-1.45a8.8,8.8,0,0,0,3.586.469,15.3,15.3,0,0,1-2.1.887h0C76.775,515.737,76.523,515.813,76.269,515.879Z" transform="translate(-70.708 -478.587)" fill="url(#linear-gradient-106)"/>
        <path id="Path_1120" data-name="Path 1120" d="M80.167,519.484l-.018.005L75.7,520.82a15.3,15.3,0,0,0,2.1-.887c6.14-3.131,11.69-10.494,14.373-14.6a21.133,21.133,0,0,1,11.639-8.888l4.831-1.452a20.566,20.566,0,0,0-2.363.872A21.444,21.444,0,0,0,97,503.881C93.959,508.53,87.249,517.352,80.167,519.484Z" transform="translate(-69.373 -483.755)" fill="url(#linear-gradient-107)"/>
      </g>
      <g id="Group_926" data-name="Group 926" transform="translate(73.599 75.544)">
        <path id="Path_1121" data-name="Path 1121" d="M67.911,466.012l-2.387,3.648s-4.472,4.024-13.734,7.99l-.143.061a4.136,4.136,0,0,0-1.8,1.313l2.262-3.458a3.919,3.919,0,0,1,1.924-1.5C63.393,470.076,67.911,466.012,67.911,466.012Z" transform="translate(-32.382 -466.012)" fill="url(#linear-gradient-108)"/>
        <path id="Path_1122" data-name="Path 1122" d="M43.458,502.994l-2.295,3.5-.171.264c-.928,1.268-2.67,1.563-4.923,1.959l2.386-3.648a17.65,17.65,0,0,0,3.271-.767A3.521,3.521,0,0,0,43.458,502.994Z" transform="translate(-36.07 -456.111)" fill="url(#linear-gradient-109)"/>
        <path id="Path_1123" data-name="Path 1123" d="M42.568,505.49a3.521,3.521,0,0,1-1.732,1.3,14.363,14.363,0,0,0-.213-2.935c-.493-3.106-2.16-5.76-.532-8.368l.106-.164a7.259,7.259,0,0,1,1.624-1.657c-.261,2.036.81,4.154,1.189,6.539C43.434,502.876,43.243,504.476,42.568,505.49Z" transform="translate(-35.18 -458.608)" fill="url(#linear-gradient-110)"/>
        <path id="Path_1124" data-name="Path 1124" d="M59.233,484.785l-2.286,3.484-.21.322c-1.459,1.979-5.293,3.04-9.169,4.475a22.955,22.955,0,0,0-5.915,2.983,7.259,7.259,0,0,0-1.624,1.657l2.4-3.669c1.045-1.525,3.255-3.039,7.526-4.62a52.7,52.7,0,0,0,7.3-2.921A5.784,5.784,0,0,0,59.233,484.785Z" transform="translate(-35.01 -460.986)" fill="url(#linear-gradient-111)"/>
        <path id="Path_1125" data-name="Path 1125" d="M56.721,487.336l-.011.016a5.784,5.784,0,0,1-1.979,1.711c-.639-3.479-6.851-9.055-4.9-12.306l.125-.191a4.136,4.136,0,0,1,1.8-1.313l.143-.061c.62,3.7,6.036,8.685,5.185,11.389A3.117,3.117,0,0,1,56.721,487.336Z" transform="translate(-32.488 -463.554)" fill="url(#linear-gradient-112)"/>
      </g>
      <g id="Group_927" data-name="Group 927" transform="translate(133.037 164.095)">
        <path id="Path_1126" data-name="Path 1126" d="M149.27,544.609l-5.3.256s-7.159-1.529-17.682-7.815c-.053-.032-.108-.063-.162-.1a5.037,5.037,0,0,0-2.579-.833l5.02-.243a4.759,4.759,0,0,1,2.856.82C142.039,543.064,149.27,544.609,149.27,544.609Z" transform="translate(-72.089 -535.863)" fill="url(#linear-gradient-113)"/>
        <path id="Path_1127" data-name="Path 1127" d="M93.866,548.055l-5.082.24-.382.019c-1.913-.008-3.447-1.512-5.446-3.448l5.3-.257a21.459,21.459,0,0,0,3.091,2.672A4.277,4.277,0,0,0,93.866,548.055Z" transform="translate(-82.956 -533.522)" fill="url(#linear-gradient-114)"/>
        <path id="Path_1128" data-name="Path 1128" d="M92.094,549.354a4.277,4.277,0,0,1-2.521-.775,17.479,17.479,0,0,0,2.738-2.306c2.707-2.705,4.128-6.243,7.86-6.5l.237-.011a8.8,8.8,0,0,1,2.792.416c-2.191,1.2-3.512,3.765-5.589,5.842C95.287,548.339,93.574,549.294,92.094,549.354Z" transform="translate(-81.185 -534.821)" fill="url(#linear-gradient-115)"/>
        <path id="Path_1129" data-name="Path 1129" d="M124.565,549.492l-5.065.238-.467.023c-2.991-.023-6.776-3.04-10.958-5.831a27.825,27.825,0,0,0-7.164-3.693,8.8,8.8,0,0,0-2.792-.416l5.327-.259c2.249-.061,5.318,1.034,9.926,4.111,2.94,1.961,5.683,4.034,8.092,5.1A7.027,7.027,0,0,0,124.565,549.492Z" transform="translate(-78.896 -534.875)" fill="url(#linear-gradient-116)"/>
        <path id="Path_1130" data-name="Path 1130" d="M119.659,550.424h-.024a7.027,7.027,0,0,1-3.1-.726c2.969-3.115,4.021-13.216,8.613-13.622l.279-.013a5.038,5.038,0,0,1,2.579.833c.055.034.109.066.162.1-3.2,3.255-4.239,12.15-7.51,13.244A3.742,3.742,0,0,1,119.659,550.424Z" transform="translate(-73.966 -535.809)" fill="url(#linear-gradient-117)"/>
      </g>
      <g id="Group_935" data-name="Group 935" transform="translate(46.391 22.925)">
        <g id="Group_928" data-name="Group 928" transform="translate(5.517 8.51)">
          <path id="Path_1131" data-name="Path 1131" d="M19.247,431.218l-.276,3.01a4.027,4.027,0,0,0,.336,1.858c.948,2.43,6.6,3.258,9.223,5.492a4.342,4.342,0,0,1,.761.819,2.182,2.182,0,0,1,.43,1.471L30,440.85a2.71,2.71,0,0,0-1.192-2.282c-2.625-2.235-8.274-3.063-9.221-5.492-.043-.1-.081-.207-.115-.307A3.821,3.821,0,0,1,19.247,431.218Z" transform="translate(-18.96 -431.218)" fill="url(#linear-gradient-118)"/>
        </g>
        <g id="Group_929" data-name="Group 929" transform="translate(2.444 67.034)">
          <path id="Path_1132" data-name="Path 1132" d="M16.812,478.725l-.276,3.01a3.855,3.855,0,0,0,1.441-2.728l0-.028a6.078,6.078,0,0,0-.1-1.6A3.985,3.985,0,0,1,16.812,478.725Z" transform="translate(-16.536 -477.383)" fill="url(#linear-gradient-119)"/>
        </g>
        <g id="Group_930" data-name="Group 930" transform="translate(5.793)">
          <path id="Path_1133" data-name="Path 1133" d="M19.2,432.933l-.008.082a3.821,3.821,0,0,0,.222,1.552c1.547-2.467,6.2-3.794,8.073-7.052l.278-3.01C25.57,428.317,19.567,429.486,19.2,432.933Z" transform="translate(-19.178 -424.505)" fill="url(#linear-gradient-120)"/>
        </g>
        <g id="Group_931" data-name="Group 931" transform="translate(0.491 44.531)">
          <path id="Path_1134" data-name="Path 1134" d="M15,468.813h0a6.746,6.746,0,0,0,.11,1.271c1.2-2.466,4.95-2.805,7.515-4.938a6.131,6.131,0,0,0,2.292-3.849c.013-.1.022-.194.027-.29a4.829,4.829,0,0,0-.115-1.377,7.1,7.1,0,0,1-1.927,2.506C19.827,464.691,15.062,464.674,15,468.813Z" transform="translate(-14.995 -459.632)" fill="url(#linear-gradient-121)"/>
        </g>
        <g id="Group_932" data-name="Group 932" transform="translate(0.214 53.713)">
          <path id="Path_1135" data-name="Path 1135" d="M14.81,469.389l0,.018a6.311,6.311,0,0,0,.1,1.871c.421,2.326,2.885,5.833,3.446,8.918a6.078,6.078,0,0,1,.1,1.6l.278-3.016c.279-3.4-3.046-7.771-3.542-10.509l-.022-.12a6.746,6.746,0,0,1-.11-1.271Z" transform="translate(-14.777 -466.875)" fill="url(#linear-gradient-122)"/>
        </g>
        <g id="Group_933" data-name="Group 933" transform="translate(0 30.835)">
          <path id="Path_1136" data-name="Path 1136" d="M14.9,448.828l-.257,2.828v0l-.029.325v.008c0,.09,0,.181,0,.273.155,2.552,3.392,3.435,5.238,4.582,2.5,1.321,4.563,3.4,5.078,5.679a4.829,4.829,0,0,1,.115,1.377l.278-3.011c.169-2.807-2.2-5.473-5.194-7.056-1.572-.975-4.154-1.761-4.981-3.55a2.85,2.85,0,0,1-.259-1.031A2.971,2.971,0,0,1,14.9,448.828Z" transform="translate(-14.608 -448.828)" fill="url(#linear-gradient-123)"/>
        </g>
        <g id="Group_934" data-name="Group 934" transform="translate(0.276 19.689)">
          <path id="Path_1137" data-name="Path 1137" d="M14.843,451.125l0,.057a2.971,2.971,0,0,0-.009.426,2.85,2.85,0,0,0,.259,1.031c1.041-1.742,3.359-3.041,4.874-3.77,3.6-1.7,10.587-4.36,10.863-7.362a2.182,2.182,0,0,0-.43-1.471c-1.909,2.362-7.188,4.418-10.157,5.823C18.317,446.784,15.1,448.625,14.843,451.125Z" transform="translate(-14.826 -440.036)" fill="url(#linear-gradient-124)"/>
        </g>
      </g>
    </g>
    <g id="Group_937" data-name="Group 937" transform="translate(64.337 479.869)">
      <path id="Path_1138" data-name="Path 1138" d="M100.631,468.589a7.647,7.647,0,0,1,1.072,2.742,6.7,6.7,0,0,1-.1,2.793,7.369,7.369,0,0,1-1.207,2.565,7.294,7.294,0,0,1-2.272,2.009,15.08,15.08,0,0,1-3.936,1.557,34.632,34.632,0,0,1-4.7.818q-2.495.268-5.218.366t-5.545.212a1.981,1.981,0,0,1,.692.8,3.172,3.172,0,0,1,.077.753,7.69,7.69,0,0,1-.161,1.52q-.3,1.268-.782,3.051t-1.045,3.848q-.559,2.065-1.185,4.259t-1.207,4.286q-1.228,4.043-2.48,7.694a44.692,44.692,0,0,1-2.367,5.811,14.89,14.89,0,0,1-3.816,4.641,10.208,10.208,0,0,1-5.356,2.18,7.885,7.885,0,0,1-3.853-.349,4.187,4.187,0,0,1-2.1-1.775,5.419,5.419,0,0,1-.66-2.77,11.422,11.422,0,0,1,.524-3.288,19.007,19.007,0,0,1,1.373-3.324,17.565,17.565,0,0,1,1.937-2.951,6.51,6.51,0,0,1,1.885,1.827,2.692,2.692,0,0,1,.549,1.554A6.486,6.486,0,0,1,60.3,510.8q-.4.938-.88,2.031t-.889,2.254a8.75,8.75,0,0,0-.489,2.054,1.925,1.925,0,0,0,.347,1.432q.426.534,1.635.382a4.015,4.015,0,0,0,2.483-1.421,12.187,12.187,0,0,0,2.014-3.233,50.045,50.045,0,0,0,2.352-6.374q1.086-3.607,2.217-7.589.62-2.242,1.256-4.636l1.27-4.786q.633-2.394,1.253-4.687t1.2-4.334a2.634,2.634,0,0,1-.34.019,3.036,3.036,0,0,0-.388.025,48.408,48.408,0,0,0-6.969,1.1,22.521,22.521,0,0,0-6.19,2.434,16.067,16.067,0,0,0-7.8,11.025,19.28,19.28,0,0,0-.4,3.915,15.274,15.274,0,0,0,.526,3.992,6.426,6.426,0,0,1-3.362-1,6.344,6.344,0,0,1-2.085-2.245,7.781,7.781,0,0,1-.9-2.986,10.982,10.982,0,0,1,.16-3.267,14.01,14.01,0,0,1,2.374-5.37,17.891,17.891,0,0,1,4.125-4.04,27.364,27.364,0,0,1,5.305-2.912,49.055,49.055,0,0,1,5.9-2.028q3.014-.823,5.951-1.345t5.4-.93q2.942-.47,5.837-.911t5.539-.974q2.643-.532,4.912-1.214a17.635,17.635,0,0,0,3.951-1.681,15.058,15.058,0,0,0,2.756-2.071A13.7,13.7,0,0,0,100.631,468.589Z" transform="translate(-46.107 -463.225)" fill="#003138"/>
      <path id="Path_1139" data-name="Path 1139" d="M91.825,501.761a.419.419,0,0,1,.54.029.545.545,0,0,1,.139.622q-.728,1.421-1.645,2.914t-1.829,2.741a21.445,21.445,0,0,1-1.705,2.087,2.6,2.6,0,0,1-1.326.906,5.227,5.227,0,0,1-1.515-.055,4.683,4.683,0,0,1-1.6-.583,3.718,3.718,0,0,1-1.285-1.288,4.315,4.315,0,0,1-.567-2.168,11.489,11.489,0,0,1,.118-1.762q.129-.924.54-2.7.3-1.268.852-3.111t1.1-3.731q.548-1.89.938-3.612a14.78,14.78,0,0,0,.415-2.759q-.008-1.476-.635-1.4-.58.072-1.6,1.483a34.374,34.374,0,0,0-2.168,3.472q-1.147,2.063-2.336,4.528t-2.158,4.651c-.219.587-.4,1.168-.558,1.744s-.3,1.1-.425,1.58a17.649,17.649,0,0,0-.8,3.792,6.467,6.467,0,0,0,.009,1.5,4.852,4.852,0,0,0,.377,1.207,4.417,4.417,0,0,1-3.268-.718,3.974,3.974,0,0,1-1.19-1.325,4.631,4.631,0,0,1-.558-2,7.356,7.356,0,0,1,.218-1.748q.255-1.215.763-3,.8-3.1,1.9-6.858t2.245-7.542q1.147-3.786,2.263-7.3t1.905-6.122a18.208,18.208,0,0,0,2.372,1.446,4.12,4.12,0,0,1,1.384.98,1.888,1.888,0,0,1,.35,1.481,14.658,14.658,0,0,1-.794,2.906q-.953,3.073-2.116,6.615t-2.27,7.177q.85-1.732,1.758-3.4t1.809-3.008a17.157,17.157,0,0,1,1.7-2.184,2.614,2.614,0,0,1,1.422-.918,4.712,4.712,0,0,1,1.957.1,3.944,3.944,0,0,1,1.367.711,3.286,3.286,0,0,1,1.038,1.567,9.258,9.258,0,0,1,.4,2.187,12.724,12.724,0,0,1-.21,3.226q-.316,1.711-.8,3.471t-1.022,3.451q-.54,1.692-.919,3.217-.466,1.681-.647,2.566a7.928,7.928,0,0,0-.185,1.524c.061.846.283,1.244.669,1.194.194-.024.515-.3.966-.835s.948-1.187,1.493-1.961,1.1-1.607,1.652-2.5S91.393,502.537,91.825,501.761Z" transform="translate(-39.799 -461.443)" fill="#003138"/>
      <path id="Path_1140" data-name="Path 1140" d="M108.711,497.042a.477.477,0,0,1,.587.024.541.541,0,0,1,.141.621q-.774,1.428-1.668,2.942t-1.776,2.785a20.026,20.026,0,0,1-1.656,2.1,2.5,2.5,0,0,1-1.3.9,5.09,5.09,0,0,1-1.468-.06,4.656,4.656,0,0,1-1.6-.583,3.931,3.931,0,0,1-1.311-1.285,4.157,4.157,0,0,1-.592-2.164,8.214,8.214,0,0,1,.153-1.962q.207-1.183.592-2.658-.894,1.835-1.842,3.6T95.1,504.5a18.318,18.318,0,0,1-1.761,2.34,2.735,2.735,0,0,1-1.514,1,4.053,4.053,0,0,1-3.192-.653,4.569,4.569,0,0,1-1.5-2.614,11.575,11.575,0,0,1-.11-3.971,28.884,28.884,0,0,1,.984-4.677,36.909,36.909,0,0,1,1.782-4.777,34.563,34.563,0,0,1,2.282-4.275,17,17,0,0,1,2.462-3.116A4.359,4.359,0,0,1,96.9,482.4a4.205,4.205,0,0,1,3.053.744,5.819,5.819,0,0,1,1.994,2.355,2.855,2.855,0,0,0-1.457.085,6.03,6.03,0,0,0-1.313.709,8.69,8.69,0,0,0-2.159,2.58,34.565,34.565,0,0,0-2.077,4.067q-.987,2.261-1.793,4.645a39.758,39.758,0,0,0-1.228,4.352,16.752,16.752,0,0,0-.431,3.195c-.009.819.183,1.2.569,1.156s.914-.534,1.581-1.453a35.09,35.09,0,0,0,2.145-3.439q1.145-2.059,2.339-4.494t2.207-4.625q.666-2.293,1.463-4.825t1.586-5.135a24.582,24.582,0,0,0,2.833,1.776,2.912,2.912,0,0,1,1.292,1.04,2.189,2.189,0,0,1-.052,1.676q-.357,1.126-1.2,3.638-.808,2.36-1.463,4.481t-1.141,3.851c-.326,1.154-.578,2.151-.763,2.993a7.366,7.366,0,0,0-.231,1.9,2.753,2.753,0,0,0,.184.884q.146.352.436.313c.226-.028.557-.307.989-.839s.908-1.18,1.424-1.951,1.04-1.609,1.577-2.513S108.279,497.818,108.711,497.042Z" transform="translate(-35.185 -459.55)" fill="#003138"/>
      <path id="Path_1141" data-name="Path 1141" d="M126.034,495.08a.417.417,0,0,1,.584,0,.66.66,0,0,1,.193.64q-.778,1.426-1.695,2.921t-1.8,2.762a15.388,15.388,0,0,1-1.706,2.085,2.732,2.732,0,0,1-1.4.891,4.833,4.833,0,0,1-1.443-.063,4.7,4.7,0,0,1-1.578-.586,3.932,3.932,0,0,1-1.31-1.287,4.157,4.157,0,0,1-.592-2.164,6.793,6.793,0,0,1,.119-1.761q.175-.932.593-2.609.3-1.268.854-3.11t1.074-3.752q.523-1.913.914-3.633a11.942,11.942,0,0,0,.363-2.8q.044-1.432-.584-1.353-.435.055-1.108.879a21.061,21.061,0,0,0-1.5,2.159q-.831,1.337-1.737,3.023t-1.8,3.477q-.9,1.786-1.7,3.536t-1.384,3.153c-.049.237-.1.455-.15.659s-.1.39-.156.56a23.01,23.01,0,0,0-.6,2.487c-.117.672-.2,1.124-.247,1.36a5.887,5.887,0,0,0,0,1.426,3.985,3.985,0,0,0,.428,1.225,4.226,4.226,0,0,1-1.685-.033,4.586,4.586,0,0,1-1.607-.681,3.817,3.817,0,0,1-1.217-1.346,4.387,4.387,0,0,1-.51-2.027,10.7,10.7,0,0,1,.27-1.682q.259-1.187.718-2.969.837-3.3,1.962-7.038t2.4-7.734q1.331.913,2.2,1.419a12.892,12.892,0,0,1,1.33.865,1.9,1.9,0,0,1,.612.709,1.58,1.58,0,0,1,.016.933,13.722,13.722,0,0,1-.5,1.588q-.369,1.008-.886,2.647a1.336,1.336,0,0,0-.1.356,1.331,1.331,0,0,1-.1.356q.89-1.932,1.876-3.828t1.975-3.425a19.69,19.69,0,0,1,1.871-2.5,2.892,2.892,0,0,1,1.6-1.065,4.95,4.95,0,0,1,1.909.077,3.664,3.664,0,0,1,1.364.688,5.4,5.4,0,0,1,1.433,3.706,15.605,15.605,0,0,1-.229,3.277q-.295,1.71-.78,3.469t-1.022,3.451q-.538,1.692-.919,3.216a26.023,26.023,0,0,0-.672,2.546,5.989,5.989,0,0,0-.114,1.49q.086,1.221.617,1.152c.2-.024.516-.294.967-.813a21.114,21.114,0,0,0,1.472-1.932q.8-1.158,1.626-2.495T126.034,495.08Z" transform="translate(-30.705 -460.253)" fill="#003138"/>
      <path id="Path_1142" data-name="Path 1142" d="M141.241,495.53a.5.5,0,0,1,.607-.052.44.44,0,0,1,.26.582c-.194.483-.5,1.162-.9,2.033s-.859,1.749-1.35,2.63a18.723,18.723,0,0,1-1.585,2.416,4.124,4.124,0,0,1-1.607,1.384q-.289.086-.6.174a2.652,2.652,0,0,1-.7.089,7.03,7.03,0,0,1-2.051-.058,5.4,5.4,0,0,1-1.9-.671,4.219,4.219,0,0,1-1.353-1.549,15.324,15.324,0,0,1-1.043-2.353,23.953,23.953,0,0,1-.776-2.682q-.319-1.384-.593-2.532-.635,1.36-1.14,2.506c-.077.273-.151.52-.216.742s-.139.453-.219.692q-.384,1.476-.584,2.434a10.452,10.452,0,0,0-.219,1.356,8.216,8.216,0,0,0,.056,1.495,4.872,4.872,0,0,0,.378,1.206,4.217,4.217,0,0,1-1.684-.033,4.293,4.293,0,0,1-1.585-.683,3.927,3.927,0,0,1-1.192-1.35,4.786,4.786,0,0,1-.559-2.019,11.3,11.3,0,0,1,.27-1.708q.253-1.213.718-2.945.8-3.1,1.9-6.858t2.244-7.567q1.145-3.809,2.238-7.294t1.885-6.094a16.742,16.742,0,0,0,2.393,1.443,3.8,3.8,0,0,1,1.387.981,2.026,2.026,0,0,1,.347,1.481,15.1,15.1,0,0,1-.716,2.945q-1.09,3.236-2.371,7.164t-2.424,7.762q.934-1.94,1.97-3.842a38.126,38.126,0,0,1,2.077-3.411,16.787,16.787,0,0,1,2.018-2.471,3.086,3.086,0,0,1,1.853-1.022,4.5,4.5,0,0,1,3.282.567,2.907,2.907,0,0,1,1.085,2.225,7.9,7.9,0,0,1-.6,3.2,19.544,19.544,0,0,1-4.331,6.674,10.828,10.828,0,0,1-2.729,2.07c.1.478.222,1.07.369,1.772s.3,1.422.469,2.154a20.058,20.058,0,0,0,.588,2.092,14.138,14.138,0,0,0,.679,1.685c.3.553.641.8,1.027.73a2.233,2.233,0,0,0,1.192-.742,9.612,9.612,0,0,0,1.223-1.656q.61-1.012,1.123-2.037t.894-1.858Q141.121,495.889,141.241,495.53Zm-12.4-2.9a4.469,4.469,0,0,0,2.193-1.042,13.033,13.033,0,0,0,2.115-2.163,17.234,17.234,0,0,0,1.734-2.7,19.472,19.472,0,0,0,1.155-2.632,5.18,5.18,0,0,0,.35-1.938c-.035-.5-.264-.729-.682-.676q-.435.055-1.216,1.064a29.3,29.3,0,0,0-1.743,2.584q-.962,1.574-1.992,3.55t-2.011,3.969Z" transform="translate(-26.143 -463.163)" fill="#003138"/>
      <path id="Path_1143" data-name="Path 1143" d="M185.375,468.46a1.626,1.626,0,0,1,.1.749,6.812,6.812,0,0,1-.236,1.482q-.186.812-.7,2.8t-1.235,4.584q-.719,2.6-1.557,5.56T180.1,489.4q-.8,2.809-1.463,5.156t-1.052,3.725q-1.133,3.982-2.393,7.512a48.081,48.081,0,0,1-2.377,5.688,14.032,14.032,0,0,1-3.722,4.58,10.184,10.184,0,0,1-5.312,2.125,7.991,7.991,0,0,1-3.8-.33,3.986,3.986,0,0,1-2.074-1.729,5.182,5.182,0,0,1-.6-2.7,12.254,12.254,0,0,1,.527-3.216,17.17,17.17,0,0,1,1.375-3.3,20.518,20.518,0,0,1,1.913-2.949,7.55,7.55,0,0,1,1.838,1.858,2.673,2.673,0,0,1,.549,1.578,6.064,6.064,0,0,1-.44,1.335q-.378.884-.861,1.979t-.891,2.2a7.159,7.159,0,0,0-.468,2,2,2,0,0,0,.344,1.407q.4.513,1.61.361a3.644,3.644,0,0,0,2.439-1.367,12.88,12.88,0,0,0,1.965-3.226,45.65,45.65,0,0,0,2.267-6.217q1.038-3.55,2.175-7.483.35-1.272.854-3.086t1.132-3.981q.626-2.17,1.283-4.592t1.363-4.871q-1.371,3.373-2.932,6.792t-3.192,6.235a26.1,26.1,0,0,1-3.328,4.654,5.731,5.731,0,0,1-3.34,2.047,3.024,3.024,0,0,1-2.3-.52,5.2,5.2,0,0,1-1.672-1.927,4.465,4.465,0,0,1-.579-2.682q.146-1.346.472-2.963.517-2.327,1.377-5.341t1.848-6.261q.989-3.25,2.023-6.555t1.993-6.279a44.516,44.516,0,0,0-5.374,3.633,61.952,61.952,0,0,0-5.03,4.377,50.926,50.926,0,0,0-4.1,4.456,24.7,24.7,0,0,0-2.629,3.827,12.838,12.838,0,0,0-1.4,7.065,6.772,6.772,0,0,1-2.572-1.519,6.632,6.632,0,0,1-1.6-2.33,7.223,7.223,0,0,1-.516-2.813,7.137,7.137,0,0,1,.737-3.021,11.112,11.112,0,0,1,1.905-2.7,35.672,35.672,0,0,1,3.24-3.117q1.884-1.616,4.177-3.334t4.735-3.356q2.447-1.639,4.971-3.14t4.878-2.734a26.57,26.57,0,0,0,2.431,1.61q.991.565,1.578.956a2.423,2.423,0,0,1,.814.808,1.74,1.74,0,0,1,.1,1.118,11.943,11.943,0,0,1-.55,1.891q-.426,1.185-1.07,3.136-.675,2.151-1.52,4.694t-1.677,5.232q-.833,2.689-1.619,5.346t-1.406,4.952c-.106.341-.238.866-.4,1.576a10.755,10.755,0,0,0-.275,1.954,5.132,5.132,0,0,0-.033.914c.016.245.106.356.267.335q.728-.042,1.926-1.719a40.99,40.99,0,0,0,2.641-4.37q1.443-2.693,2.988-6.013t2.992-6.628q1.449-3.309,2.632-6.213t1.929-4.772q.308-1.169.6-2.168t.488-1.71c.614.415,1.169.771,1.661,1.069s.933.555,1.322.768a6.333,6.333,0,0,1,.947.617A1.853,1.853,0,0,1,185.375,468.46Z" transform="translate(-20.055 -464.358)" fill="#003138"/>
      <path id="Path_1144" data-name="Path 1144" d="M191.773,471.458a5.008,5.008,0,0,1,1.746,3.3,14.7,14.7,0,0,1-.119,4.86,25.534,25.534,0,0,1-1.68,5.527,27.2,27.2,0,0,1-2.965,5.3,20.288,20.288,0,0,1-3.972,4.169,10.289,10.289,0,0,1-4.675,2.142l-.821.1a3.869,3.869,0,0,1-2.879-.716,4.619,4.619,0,0,1-1.738-3.176,16.5,16.5,0,0,1,.023-4.849,29.623,29.623,0,0,1,1.362-5.559,35.512,35.512,0,0,1,2.283-5.284,20.6,20.6,0,0,1,2.738-4.014,4.79,4.79,0,0,1,2.751-1.776,4.26,4.26,0,0,1,3.05.721,6.394,6.394,0,0,1,2.1,2.366,2.752,2.752,0,0,0-1.434.084,5.086,5.086,0,0,0-1.291.7,8.714,8.714,0,0,0-1.8,2.172,26.777,26.777,0,0,0-1.739,3.321q-.82,1.85-1.526,3.907t-1.207,3.967a33.9,33.9,0,0,0-.731,3.438,7.434,7.434,0,0,0-.077,2.346c.1.448.227.685.392.714a1.828,1.828,0,0,0,.772-.123,6.871,6.871,0,0,0,2.856-2.355,25.089,25.089,0,0,0,2.647-4.271,40.417,40.417,0,0,0,2.142-5.217,32.66,32.66,0,0,0,1.311-5.234,14.967,14.967,0,0,0,.134-4.3,3.067,3.067,0,0,0-1.32-2.439c.028-.07.185-.155.47-.257a4.047,4.047,0,0,1,1.009-.2,4.151,4.151,0,0,1,1.176.072A1.9,1.9,0,0,1,191.773,471.458Z" transform="translate(-11.735 -462.63)" fill="#003138"/>
      <path id="Path_1145" data-name="Path 1145" d="M211.442,484.113a.438.438,0,0,1,.563.027.638.638,0,0,1,.165.619q-.776,1.428-1.645,2.916t-1.732,2.752a15.23,15.23,0,0,1-1.656,2.08,2.627,2.627,0,0,1-1.327.881,5.082,5.082,0,0,1-1.467-.06,4.654,4.654,0,0,1-1.6-.583,3.916,3.916,0,0,1-1.31-1.285,4.157,4.157,0,0,1-.593-2.164,6.193,6.193,0,0,1,.042-1.137q.074-.647.259-1.509-.879,1.392-1.85,2.818t-1.912,2.6a22.325,22.325,0,0,1-1.715,1.94,2.6,2.6,0,0,1-1.209.818,4.875,4.875,0,0,1-1.443-.063,4.715,4.715,0,0,1-1.577-.587,3.92,3.92,0,0,1-1.311-1.285,4.157,4.157,0,0,1-.592-2.164,12.743,12.743,0,0,1,.339-3.141q.411-2.071,1.126-4.744t1.666-5.747q.953-3.071,2.049-6.164a.311.311,0,0,1,.084-.208,24.456,24.456,0,0,0,2.832,1.781,2.849,2.849,0,0,1,1.294,1.066,2.19,2.19,0,0,1-.051,1.68q-.361,1.1-1.206,3.622-.81,2.366-1.462,4.49t-1.117,3.856q-.464,1.73-.739,3a7.416,7.416,0,0,0-.232,1.9c-.008.822.2,1.206.62,1.152q.289-.036,1.211-1.137t2.009-2.617q1.086-1.516,2.188-3.181t1.751-2.831q.759-3,1.891-6.661t2.273-7.5l.044-.055q1.234.875,2.071,1.362t1.353.837a2.28,2.28,0,0,1,.707.7,1.489,1.489,0,0,1,.093.972,10.473,10.473,0,0,1-.445,1.63q-.342,1-.906,2.7-.806,2.367-1.462,4.467t-1.118,3.831q-.464,1.73-.739,3a7.359,7.359,0,0,0-.232,1.9q-.011,1.232.619,1.152c.224-.029.557-.3.991-.815a21.885,21.885,0,0,0,1.424-1.927q.77-1.156,1.554-2.486T211.442,484.113Z" transform="translate(-7.715 -463.037)" fill="#003138"/>
    </g>
    <g id="Group_938" data-name="Group 938" transform="translate(60.798 437.259)">
      <path id="Path_1146" data-name="Path 1146" d="M56.68,446.6c-1.874,3.3-10.484,2.05-13.364,5.032l.9-2.037c2.66-2.755,10.208-1.9,12.822-4.351a2.942,2.942,0,0,0,.482-.579l-.619,1.42Z" transform="translate(-43.316 -427.021)" fill="url(#linear-gradient-125)"/>
      <path id="Path_1147" data-name="Path 1147" d="M55.149,440.744a10.622,10.622,0,0,1-5.565-1.431c-.858-.5-1.162-.908-1.085-1.178C48.743,437.263,52.9,437.754,55.149,440.744Z" transform="translate(-41.932 -428.873)" fill="url(#linear-gradient-126)"/>
      <path id="Path_1148" data-name="Path 1148" d="M56.572,435.144a9.435,9.435,0,0,1-4.371-1.3c-.56-.357-.756-.611-.692-.755h0C51.716,432.63,54.534,433.267,56.572,435.144Z" transform="translate(-41.126 -430.159)" fill="url(#linear-gradient-127)"/>
      <path id="Path_1149" data-name="Path 1149" d="M57.5,439.126l-.049.113a2.5,2.5,0,0,1-.28.45,2.563,2.563,0,0,1-.382.4,3.715,3.715,0,0,0-.212-1.107,6.491,6.491,0,0,0-1.793-2.666,10.271,10.271,0,0,0,2.382-.118,5.754,5.754,0,0,1,.314.747,3.478,3.478,0,0,1,.2,1.483h0A2.512,2.512,0,0,1,57.5,439.126Z" transform="translate(-40.245 -429.289)" fill="url(#linear-gradient-128)"/>
      <path id="Path_1150" data-name="Path 1150" d="M60.18,433.788l0,.009a2.356,2.356,0,0,1-.767.919,4.2,4.2,0,0,0-.961-1.931l.9-2.038C60.338,431.984,60.523,433,60.18,433.788Z" transform="translate(-39.265 -430.747)" fill="url(#linear-gradient-129)"/>
      <path id="Path_1151" data-name="Path 1151" d="M54.923,445.516a2.942,2.942,0,0,1-.482.579c0-.109,0-.221-.005-.337a7.149,7.149,0,0,0-1.407-3.977,7.151,7.151,0,0,0,1.856-.3,7.607,7.607,0,0,1,.455,2.235,3.317,3.317,0,0,1-.1,1.065h0A2.7,2.7,0,0,1,54.923,445.516Z" transform="translate(-40.716 -427.872)" fill="url(#linear-gradient-130)"/>
      <path id="Path_1152" data-name="Path 1152" d="M62.228,433.178l-.9,2.04a3.947,3.947,0,0,1-3.083,1.817,10.271,10.271,0,0,1-2.382.118,9.425,9.425,0,0,1-4.37-1.3c-.564-.36-.758-.614-.692-.758l.9-2.036c-.063.144.132.4.692.755a9.435,9.435,0,0,0,4.371,1.3,7.456,7.456,0,0,0,4.7-1.017A2.356,2.356,0,0,0,62.228,433.178Z" transform="translate(-41.317 -430.128)" fill="url(#linear-gradient-131)"/>
      <path id="Path_1153" data-name="Path 1153" d="M59.331,438.741l-.917,2.065a3.357,3.357,0,0,1-2.122,1.6,7.151,7.151,0,0,1-1.856.3,10.622,10.622,0,0,1-5.565-1.431c-.858-.5-1.162-.908-1.085-1.179l.9-2.037c-.077.27.227.674,1.085,1.178a10.622,10.622,0,0,0,5.565,1.431,5.419,5.419,0,0,0,3.329-1.074,2.563,2.563,0,0,0,.382-.4A2.5,2.5,0,0,0,59.331,438.741Z" transform="translate(-42.123 -428.791)" fill="url(#linear-gradient-132)"/>
    </g>
    <g id="Group_939" data-name="Group 939" transform="translate(96.332 462.933)">
      <path id="Path_1154" data-name="Path 1154" d="M92.345,462.206l-2.312,2.312a4.936,4.936,0,0,0,.648-.972c1.387-2.741.077-6.545-1.809-10.23L91.187,451C93.309,455.146,94.7,459.442,92.345,462.206Z" transform="translate(-66.654 -450.999)" fill="url(#linear-gradient-133)"/>
      <path id="Path_1155" data-name="Path 1155" d="M73.467,472.909a2.65,2.65,0,0,1,.518-1.018h0a5.212,5.212,0,0,1,1.58-1.19c2.1-1.08,4.63-.692,6.473-1.188a3.309,3.309,0,0,1-.681,1.367C79.754,472.729,76.262,471.616,73.467,472.909Z" transform="translate(-70.778 -446.043)" fill="url(#linear-gradient-134)"/>
      <path id="Path_1156" data-name="Path 1156" d="M88.228,464.035c-1.932.63-4.276.559-6.165,1.138a1.827,1.827,0,0,1,.446-1.236h0a2.253,2.253,0,0,1,.266-.259l0,0a4.527,4.527,0,0,1,.9-.56c1.94-.957,4.687-.685,6.866-1.4A9.885,9.885,0,0,0,92.5,460.9a4.935,4.935,0,0,1-.648.972A7.506,7.506,0,0,1,88.228,464.035Z" transform="translate(-68.477 -448.349)" fill="url(#linear-gradient-135)"/>
      <path id="Path_1157" data-name="Path 1157" d="M82,470.229l-2.312,2.314a3.309,3.309,0,0,0,.681-1.367,6.793,6.793,0,0,0,.2-1.539c.02-1.931-.628-3.114.214-4.055l.2-.194,0,0,2.156-2.09a1.827,1.827,0,0,0-.446,1.236c-.019.725.2,1.606.188,2.789A4.448,4.448,0,0,1,82,470.229Z" transform="translate(-69.112 -447.707)" fill="url(#linear-gradient-136)"/>
      <path id="Path_1158" data-name="Path 1158" d="M73.662,481.334l-2.316,2.316c1.5-3.164.469-3.849.254-6.664-.1-1.893.038-2.88,1.143-3.775l1.81-1.822a2.65,2.65,0,0,0-.518,1.018,7.477,7.477,0,0,0-.119,2.263C74.131,477.485,75.164,478.17,73.662,481.334Z" transform="translate(-71.346 -445.54)" fill="url(#linear-gradient-137)"/>
    </g>
    <g id="Group_940" data-name="Group 940" transform="translate(149.716 463.402)">
      <path id="Path_1159" data-name="Path 1159" d="M155.1,457.474l-2.236,1.182c-2.12-2-8.259-6.606-12.237-6.061a3.728,3.728,0,0,0-1.251.39l2.235-1.182C145.413,449.8,152.745,455.251,155.1,457.474Z" transform="translate(-106.516 -451.369)" fill="url(#linear-gradient-138)"/>
      <path id="Path_1160" data-name="Path 1160" d="M115.837,475.25l-2.235,1.18c-.553-3.808.513-6.01,2.445-6.952l.006,0a5.162,5.162,0,0,1,1.1-.38C115.963,470.273,115.4,472.27,115.837,475.25Z" transform="translate(-113.456 -446.623)" fill="url(#linear-gradient-139)"/>
      <path id="Path_1161" data-name="Path 1161" d="M138.48,467.275l-.034.018a2.221,2.221,0,0,1-1.2.226c3.041-4.011-.986-11.014,1.8-14.093a3.357,3.357,0,0,1,.905-.7,3.728,3.728,0,0,1,1.251-.39c-2.738,3.258,1.64,10.627-2.145,14.495A2.336,2.336,0,0,1,138.48,467.275Z" transform="translate(-107.087 -451.11)" fill="url(#linear-gradient-140)"/>
      <path id="Path_1162" data-name="Path 1162" d="M126.972,472.238a2,2,0,0,1-1.036.051c.048-.085.1-.176.141-.271,1.033-2.222.108-5.716,1.14-7.937a3.291,3.291,0,0,1,1.284-1.6l.133-.071a2.233,2.233,0,0,1,1.185-.2,5.025,5.025,0,0,0-.366.683c-1.033,2.222-.108,5.715-1.14,7.937a3.015,3.015,0,0,1-.885,1.161A1.632,1.632,0,0,1,126.972,472.238Z" transform="translate(-110.115 -448.468)" fill="url(#linear-gradient-141)"/>
      <path id="Path_1163" data-name="Path 1163" d="M122.193,470a10.306,10.306,0,0,0-5.589-.622,5.162,5.162,0,0,0-1.1.38l1.785-.928h0l.693-.361c1.7-.709,4-.521,6.445.352,1.581.6,3.051,1.68,4.3,1.908a2,2,0,0,0,1.036-.051l-1.774.938C126.507,472.709,124.466,470.869,122.193,470Z" transform="translate(-112.908 -446.907)" fill="url(#linear-gradient-142)"/>
      <path id="Path_1164" data-name="Path 1164" d="M140.9,464.9l-2.1,1.1h0l-.245.128h0c-2.565,1.137-6.44-3.414-9.311-3.666a2.233,2.233,0,0,0-1.185.2l2.1-1.108c2.556-1.476,6.583,3.366,9.546,3.574A2.221,2.221,0,0,0,140.9,464.9Z" transform="translate(-109.546 -448.717)" fill="url(#linear-gradient-143)"/>
    </g>
  </g>
</svg>
