<svg xmlns="http://www.w3.org/2000/svg" width="19.673" height="14.754" viewBox="0 0 19.673 14.754">
  <g id="hide" transform="translate(0 -64.008)">
    <g id="Group_775" data-name="Group 775" transform="translate(7.398 68.947)">
      <g id="Group_774" data-name="Group 774" transform="translate(0 0)">
        <path id="Path_994" data-name="Path 994" d="M197.306,192.662a.41.41,0,0,0-.58.58,2.459,2.459,0,1,1-3.477,3.477.41.41,0,0,0-.58.58,3.278,3.278,0,1,0,4.636-4.636Z" transform="translate(-192.55 -192.542)" fill="#457470"/>
      </g>
    </g>
    <g id="Group_777" data-name="Group 777" transform="translate(6.557 68.106)">
      <g id="Group_776" data-name="Group 776" transform="translate(0 0)">
        <path id="Path_995" data-name="Path 995" d="M174.518,170.716a3.246,3.246,0,0,0-3.85,3.222,3.21,3.21,0,0,0,.057.571.41.41,0,0,0,.4.339.362.362,0,0,0,.072-.007.41.41,0,0,0,.332-.475,2.377,2.377,0,0,1-.044-.429,2.43,2.43,0,0,1,2.888-2.416.41.41,0,0,0,.143-.807Z" transform="translate(-170.668 -170.659)" fill="#457470"/>
      </g>
    </g>
    <g id="Group_779" data-name="Group 779" transform="translate(5.127 66.792)">
      <g id="Group_778" data-name="Group 778" transform="translate(0 0)">
        <path id="Path_996" data-name="Path 996" d="M147.884,140.789a19.911,19.911,0,0,0-5.368-4.282.41.41,0,0,0-.376.729,19.262,19.262,0,0,1,4.881,3.818c-.977,1.058-4.822,4.918-8.876,4.918a9.451,9.451,0,0,1-4.122-.988.41.41,0,0,0-.356.738,10.25,10.25,0,0,0,4.477,1.07c5.05,0,9.551-5.249,9.74-5.473A.41.41,0,0,0,147.884,140.789Z" transform="translate(-133.435 -136.461)" fill="#457470"/>
      </g>
    </g>
    <g id="Group_781" data-name="Group 781" transform="translate(0 65.647)">
      <g id="Group_780" data-name="Group 780" transform="translate(0 0)">
        <path id="Path_997" data-name="Path 997" d="M12.526,107.131a8.463,8.463,0,0,0-2.69-.472c-5.05,0-9.551,5.25-9.74,5.473a.41.41,0,0,0-.023.5,15.216,15.216,0,0,0,3.76,3.565.407.407,0,0,0,.567-.116.409.409,0,0,0-.115-.567,14.989,14.989,0,0,1-3.347-3.094c.944-1.025,4.814-4.94,8.9-4.94a7.673,7.673,0,0,1,2.428.429.4.4,0,0,0,.519-.257A.409.409,0,0,0,12.526,107.131Z" transform="translate(0 -106.659)" fill="#457470"/>
      </g>
    </g>
    <g id="Group_783" data-name="Group 783" transform="translate(2.459 64.008)">
      <g id="Group_782" data-name="Group 782" transform="translate(0 0)">
        <path id="Path_998" data-name="Path 998" d="M78.631,64.128a.41.41,0,0,0-.58,0L64.116,78.063a.41.41,0,0,0,.58.58L78.631,64.707A.41.41,0,0,0,78.631,64.128Z" transform="translate(-63.996 -64.008)" fill="#457470"/>
      </g>
    </g>
  </g>
</svg>
