<svg xmlns="http://www.w3.org/2000/svg" width="14.301" height="14.301" viewBox="0 0 14.301 14.301">
  <g id="order_1_" data-name="order (1)" transform="translate(-1 -1)">
    <path id="Path_1165" data-name="Path 1165" d="M19.692,15.231A.231.231,0,0,1,19.461,15H19a.692.692,0,0,0,1.384,0h-.461A.231.231,0,0,1,19.692,15.231Z" transform="translate(-13.848 -10.771)" fill="#17554e"/>
    <path id="Path_1166" data-name="Path 1166" d="M36.692,39a.692.692,0,1,0,.692.692A.693.693,0,0,0,36.692,39Zm0,.923a.231.231,0,1,1,.231-.231A.231.231,0,0,1,36.692,39.923Z" transform="translate(-26.927 -29.235)" fill="#17554e"/>
    <path id="Path_1167" data-name="Path 1167" d="M51.307,6.153a1.153,1.153,0,1,0-1.153,1.153A1.155,1.155,0,0,0,51.307,6.153Zm-1.845,0a.692.692,0,1,1,.692.692A.693.693,0,0,1,49.461,6.153Z" transform="translate(-36.929 -3.077)" fill="#17554e"/>
    <path id="Path_1168" data-name="Path 1168" d="M13.225,1A2.077,2.077,0,0,0,11.27,2.384H7.458A1.385,1.385,0,0,0,6.074,1H4.347A3.347,3.347,0,0,0,2.573,7.185l.272.17V8.4a1.155,1.155,0,0,0-.923,1.13v.923A4.349,4.349,0,0,0,2.384,12.4v2.9H8.842a.462.462,0,0,0,.461-.461h3.921a1.155,1.155,0,0,0,1.153-1.153V12.048a1.155,1.155,0,0,0,.923-1.13V3.076A2.078,2.078,0,0,0,13.225,1Zm0,.461a1.617,1.617,0,0,1,1.615,1.615,4.91,4.91,0,0,1-1.615,2.913A4.91,4.91,0,0,1,11.61,3.076,1.617,1.617,0,0,1,13.225,1.461ZM11.149,4.69h.461v.461h-.461Zm.923.923V5.375a7.89,7.89,0,0,0,.923,1.032V7.92H9.765V4.69h.923v.923ZM2.818,6.794A2.886,2.886,0,0,1,4.347,1.461H6.074a.923.923,0,0,1,0,1.845H5.613a.461.461,0,0,1,0-.923V1.923a.924.924,0,0,0-.923.923.913.913,0,0,0,.128.461h-.59a.468.468,0,0,1-.461-.483.441.441,0,0,1,.459-.44l.006-.461a.887.887,0,0,0-.653.255.906.906,0,0,0-.273.664.919.919,0,0,0,.026.209A1.24,1.24,0,0,0,2.846,4a1,1,0,0,0-.523,1.8l.523.392v.622Zm5.563-.259V7h-1.6a1.6,1.6,0,0,0,.176-.461ZM6.536,5.471v.6H6.359a.6.6,0,0,1-.54-.334l-.413.206a1.061,1.061,0,0,0,.953.589h.12a1.144,1.144,0,0,1-.993.807l-1.279.116.042.459.441-.04v.665a.6.6,0,0,1-.516.3H3.993A1.151,1.151,0,0,0,3.307,8.4V5.959L2.6,5.429a.538.538,0,0,1,.322-.969h.384V4.036a.779.779,0,0,1,.246-.569.916.916,0,0,0,.676.3H6.074A1.38,1.38,0,0,0,6.49,3.7a4.435,4.435,0,0,1,.5,1.539Zm0,6.6H7.647l-.1.607A1.137,1.137,0,0,0,7,12.533H6.536Zm0,.923H7a.691.691,0,0,1,.65.461H7.228a1.141,1.141,0,0,0-.692.237Zm-.461-.475a2.078,2.078,0,0,1-1.845-2.062V9.534A1.149,1.149,0,0,0,4.205,9.3a1.057,1.057,0,0,0,.773-.362,2.871,2.871,0,0,1,1.1,2.259ZM2.384,9.534a.692.692,0,0,1,1.384,0v.923a2.54,2.54,0,0,0,2.307,2.525v1.384a3.923,3.923,0,0,1-3.69-3.909Zm.461,5.305v-1.7a4.372,4.372,0,0,0,3.229,1.691v.012Zm6,0H6.536v-.231a.693.693,0,0,1,.692-.692H8.15a.693.693,0,0,1,.692.692ZM8.15,13.455H8.127a1.148,1.148,0,0,0-.174-.413l.162-.971h3.3l.384,2.307H9.28A1.155,1.155,0,0,0,8.15,13.455Zm5.074.923h-.958l-.384-2.307h2.034v1.615A.693.693,0,0,1,13.225,14.378Zm.923-2.768H6.536V11.2A3.331,3.331,0,0,0,5.945,9.3h8.894v1.615A.693.693,0,0,1,14.147,11.61Zm.692-2.768H5.555a3.333,3.333,0,0,0-.4-.345V7.837L5.529,7.8a1.613,1.613,0,0,0,.861-.344H8.842V6.074H7V5.756l.461-.231V5.382A4.615,4.615,0,0,0,6.9,3.492a1.389,1.389,0,0,0,.477-.647h3.785a2.061,2.061,0,0,0-.014.231A3.02,3.02,0,0,0,11.4,4.229H9.765A.462.462,0,0,0,9.3,4.69V7.92a.462.462,0,0,0,.461.461h3.229a.462.462,0,0,0,.461-.461V6.407a7.414,7.414,0,0,0,1.384-1.748Z" fill="#17554e"/>
    <path id="Path_1169" data-name="Path 1169" d="M31,31h.461v.461H31Z" transform="translate(-23.08 -23.08)" fill="#17554e"/>
    <path id="Path_1170" data-name="Path 1170" d="M27,31h.461v.461H27Z" transform="translate(-20.003 -23.08)" fill="#17554e"/>
    <path id="Path_1171" data-name="Path 1171" d="M31,11h2.307v.461H31Z" transform="translate(-23.08 -7.693)" fill="#17554e"/>
    <path id="Path_1172" data-name="Path 1172" d="M31,15h.923v.461H31Z" transform="translate(-23.08 -10.771)" fill="#17554e"/>
    <path id="Path_1173" data-name="Path 1173" d="M31,19h.923v.461H31Z" transform="translate(-23.08 -13.848)" fill="#17554e"/>
  </g>
</svg>
