<svg id="Group_957" data-name="Group 957" xmlns="http://www.w3.org/2000/svg" width="9.305" height="15.508" viewBox="0 0 9.305 15.508">
  <g id="Group_794" data-name="Group 794" transform="translate(0)">
    <path id="Path_1001" data-name="Path 1001" d="M110.929,0h-7.754a.775.775,0,0,0-.775.775V14.732a.775.775,0,0,0,.775.775h7.754a.775.775,0,0,0,.775-.775V.775A.775.775,0,0,0,110.929,0Zm.258,2.068h-5.945a.258.258,0,0,0,0,.517h5.945v10.08h-.775a.258.258,0,1,0,0,.517h.775v1.551a.258.258,0,0,1-.258.258h-7.754a.258.258,0,0,1-.258-.258V13.181h5.945a.258.258,0,1,0,0-.517h-5.945V2.585h.775a.258.258,0,1,0,0-.517h-.775V.775a.258.258,0,0,1,.258-.258h7.754a.258.258,0,0,1,.258.258Z" transform="translate(-102.4)" fill="#17554e"/>
    <path id="Path_1002" data-name="Path 1002" d="M239.708,460.8h-.517a.258.258,0,0,0,0,.517h.517a.258.258,0,0,0,0-.517Z" transform="translate(-234.798 -446.843)"/>
    <path id="Path_1003" data-name="Path 1003" d="M137.636,136.61l-.589.353a.972.972,0,0,0-.443.576c-.222.809-.064,2.195,1.948,4.206,1.593,1.592,2.793,2.023,3.626,2.023a2.193,2.193,0,0,0,.581-.076.972.972,0,0,0,.576-.443l.354-.589a.551.551,0,0,0-.167-.743l-1.41-.938a.555.555,0,0,0-.742.121l-.41.527a.034.034,0,0,1-.043.01l-.078-.043a6.41,6.41,0,0,1-2.136-2.136l-.043-.079a.033.033,0,0,1,.01-.043l.527-.41a.554.554,0,0,0,.12-.742l-.938-1.408A.551.551,0,0,0,137.636,136.61Zm.313.454.51.766.428.64a.036.036,0,0,1-.007.047l-.527.41a.547.547,0,0,0-.144.7l.041.075a6.908,6.908,0,0,0,2.343,2.343l.075.041a.548.548,0,0,0,.7-.144l.41-.527a.035.035,0,0,1,.047-.008l1.407.938a.035.035,0,0,1,.011.047l-.353.588a.458.458,0,0,1-.269.21c-.555.152-1.771.119-3.7-1.813s-1.966-3.15-1.814-3.7a.458.458,0,0,1,.21-.269l.588-.353a.033.033,0,0,1,.018-.005A.035.035,0,0,1,137.948,137.063Z" transform="translate(-135.494 -132.395)" fill="#17554e"/>
  </g>
</svg>
