<svg id="user" xmlns="http://www.w3.org/2000/svg" width="15.759" height="15.759" viewBox="0 0 15.759 15.759">
  <g id="Group_944" data-name="Group 944">
    <g id="Group_943" data-name="Group 943">
      <path id="Path_1174" data-name="Path 1174" d="M15.759,7.879A7.879,7.879,0,1,0,4.048,14.762a.263.263,0,0,0,.056.031,7.867,7.867,0,0,0,7.551,0,.261.261,0,0,0,.056-.031A7.885,7.885,0,0,0,15.759,7.879Zm-15.233,0a7.354,7.354,0,1,1,11.294,6.207V12.607a3.955,3.955,0,0,0-1.957-3.4.264.264,0,0,0-.275.006,3.188,3.188,0,0,1-3.415,0A.264.264,0,0,0,5.9,9.206a3.955,3.955,0,0,0-1.957,3.4v1.479A7.355,7.355,0,0,1,.525,7.879Zm3.94,6.512V12.607A3.428,3.428,0,0,1,6.029,9.741a3.717,3.717,0,0,0,3.7,0,3.429,3.429,0,0,1,1.564,2.866v1.784a7.341,7.341,0,0,1-6.829,0Z" fill="#0e3e40"/>
      <path id="Path_1175" data-name="Path 1175" d="M173.293,116.186a2.626,2.626,0,1,0-2.626-2.626A2.629,2.629,0,0,0,173.293,116.186Zm0-4.728a2.1,2.1,0,1,1-2.1,2.1A2.1,2.1,0,0,1,173.293,111.458Z" transform="translate(-165.414 -107.519)" fill="#0e3e40"/>
    </g>
  </g>
</svg>
